STARTFONT 2.1
FONT -FontForge-Weather Icons-Book-R-Normal--25-240-75-75-P-220-ISO10646-1
SIZE 24 75 75
FONTBOUNDINGBOX 39 37 -1 -9
COMMENT "Generated by fontforge, http://fontforge.sourceforge.net"
COMMENT "Weather Icons licensed under SIL OFL 1.1 - Code licensed under MIT License - Documentation licensed under CC BY 3.0"
STARTPROPERTIES 36
FOUNDRY "FontForge"
FAMILY_NAME "Weather Icons"
WEIGHT_NAME "Book"
SLANT "R"
SETWIDTH_NAME "Normal"
ADD_STYLE_NAME ""
PIXEL_SIZE 25
POINT_SIZE 240
RESOLUTION_X 75
RESOLUTION_Y 75
SPACING "P"
AVERAGE_WIDTH 220
CHARSET_REGISTRY "ISO10646"
CHARSET_ENCODING "1"
FONTNAME_REGISTRY ""
CHARSET_COLLECTIONS "Symbol ISO10646-1"
FONT_NAME "WeatherIcons-Regular"
FACE_NAME "Weather Icons Regular"
COPYRIGHT "Weather Icons licensed under SIL OFL 1.1 - Code licensed under MIT License - Documentation licensed under CC BY 3.0"
FONT_VERSION "1.100;PS 001.100;hotconv 1.0.70;makeotf.lib2.5.58329"
FONT_ASCENT 21
FONT_DESCENT 4
UNDERLINE_POSITION -1
UNDERLINE_THICKNESS 1
RAW_ASCENT 856
RAW_DESCENT 143
NORM_SPACE 8
RELATIVE_WEIGHT 40
RELATIVE_SETWIDTH 50
SUPERSCRIPT_X 0
SUPERSCRIPT_Y 8
SUPERSCRIPT_SIZE 15
SUBSCRIPT_X 0
SUBSCRIPT_Y 1
SUBSCRIPT_SIZE 15
FIGURE_WIDTH -1
ENDPROPERTIES
CHARS 247
STARTCHAR space
ENCODING 32
SWIDTH 334 0
DWIDTH 8 0
BBX 1 1 0 0
BITMAP
00
ENDCHAR
STARTCHAR uni00A0
ENCODING 160
SWIDTH 334 0
DWIDTH 8 0
BBX 1 1 0 0
BITMAP
00
ENDCHAR
STARTCHAR uni2000
ENCODING 8192
SWIDTH 547 0
DWIDTH 14 0
BBX 1 1 0 0
BITMAP
00
ENDCHAR
STARTCHAR uni2001
ENCODING 8193
SWIDTH 1096 0
DWIDTH 27 0
BBX 1 1 0 0
BITMAP
00
ENDCHAR
STARTCHAR uni2002
ENCODING 8194
SWIDTH 547 0
DWIDTH 14 0
BBX 1 1 0 0
BITMAP
00
ENDCHAR
STARTCHAR uni2003
ENCODING 8195
SWIDTH 1096 0
DWIDTH 27 0
BBX 1 1 0 0
BITMAP
00
ENDCHAR
STARTCHAR uni2004
ENCODING 8196
SWIDTH 365 0
DWIDTH 9 0
BBX 1 1 0 0
BITMAP
00
ENDCHAR
STARTCHAR uni2005
ENCODING 8197
SWIDTH 273 0
DWIDTH 7 0
BBX 1 1 0 0
BITMAP
00
ENDCHAR
STARTCHAR uni2006
ENCODING 8198
SWIDTH 182 0
DWIDTH 5 0
BBX 1 1 0 0
BITMAP
00
ENDCHAR
STARTCHAR uni2007
ENCODING 8199
SWIDTH 182 0
DWIDTH 5 0
BBX 1 1 0 0
BITMAP
00
ENDCHAR
STARTCHAR uni2008
ENCODING 8200
SWIDTH 136 0
DWIDTH 3 0
BBX 1 1 0 0
BITMAP
00
ENDCHAR
STARTCHAR uni2009
ENCODING 8201
SWIDTH 219 0
DWIDTH 5 0
BBX 1 1 0 0
BITMAP
00
ENDCHAR
STARTCHAR uni200A
ENCODING 8202
SWIDTH 60 0
DWIDTH 2 0
BBX 1 1 0 0
BITMAP
00
ENDCHAR
STARTCHAR uni202F
ENCODING 8239
SWIDTH 219 0
DWIDTH 5 0
BBX 1 1 0 0
BITMAP
00
ENDCHAR
STARTCHAR uni205F
ENCODING 8287
SWIDTH 273 0
DWIDTH 7 0
BBX 1 1 0 0
BITMAP
00
ENDCHAR
STARTCHAR uni25FC
ENCODING 9724
SWIDTH 278 0
DWIDTH 7 0
BBX 1 1 0 0
BITMAP
00
ENDCHAR
STARTCHAR uniF000
ENCODING 61440
SWIDTH 1526 0
DWIDTH 38 0
BBX 38 32 0 -5
BITMAP
0000018000
0000018000
0000018000
0000018000
00038180C0
00038001C0
0001800380
000007E100
0007CFF000
001FFC3800
003C380C00
00701C0E00
00600E0600
00E006067C
01C007C67C
03C007F600
0707803C00
0C0FE01C00
1C06601C00
0000600C00
0000600C00
FFFFC00D80
FFFF800DC0
00000018C0
0000003800
FFE1FFF000
FFF1FFC000
0030000000
0030000000
0330000000
03F0000000
01E0000000
ENDCHAR
STARTCHAR uniF001
ENCODING 61441
SWIDTH 1516 0
DWIDTH 38 0
BBX 38 31 0 -4
BITMAP
0000018000
0000018000
0000018000
0000018000
00030180C0
00038001C0
0001800380
000007E300
0007CFF000
001FFC3800
0038380C00
00701C0E00
00E00E0600
00C006067C
01C007C678
07C007FE00
0F00007C00
0C00001C00
1C00001C00
0000000C00
0000000C00
3FFF000D80
3FFF000DC0
00000018C0
0000003800
FFFBFFF000
FFFBFFC000
0000000000
0000000000
0FFFC00000
0FFFC00000
ENDCHAR
STARTCHAR uniF002
ENCODING 61442
SWIDTH 1399 0
DWIDTH 35 0
BBX 35 27 0 0
BITMAP
00000C0000
00000C0000
00000C0000
00000C0000
00180C0600
001C000E00
000C001C00
00003F0000
003E7FC000
00FFE1E000
01C1C06000
0380E03000
07007033C0
06003033E0
1E003E3000
3E003FF000
700003E000
600000E000
C00000E000
C000006000
C000006000
C000006C00
C000006E00
600000C600
700001C000
3FFFFF8000
0FFFFE0000
ENDCHAR
STARTCHAR uniF003
ENCODING 61443
SWIDTH 1529 0
DWIDTH 38 0
BBX 38 31 0 -4
BITMAP
0000018000
0000018000
0000018000
0000018000
00030180C0
00038001C0
0001800380
000007E000
0007CFF000
001FFC3800
003C380C00
00701C0E00
00600E0600
00E006067C
01C007C67C
07C007FE00
0F00007C00
0C00001C00
1C00001C00
0000000000
0000000000
0FFFFFFD80
0FFFFFFDC0
00000000C0
0000000000
FFFFFFC000
FFFFFFC000
0000000000
0000000000
03FFFFFF00
03FFFFFF00
ENDCHAR
STARTCHAR uniF004
ENCODING 61444
SWIDTH 1408 0
DWIDTH 35 0
BBX 35 34 0 -7
BITMAP
00000C0000
00000C0000
00000C0000
00080C0200
001C000600
000C000E00
0000001C00
00003F0000
003E7FC000
00FFE1E000
01F7C06000
0380E07000
0300703000
07003033E0
0E003E31E0
3E003FF000
780003E000
700000E000
E00000E000
C000006000
C000006000
C063306E00
E06730E600
606670C200
78E663C000
3CCE678000
0CCC660000
000C000000
018C800000
019CC00000
0018000000
0000000000
0010000000
0030000000
ENDCHAR
STARTCHAR uniF005
ENCODING 61445
SWIDTH 1400 0
DWIDTH 35 0
BBX 35 35 0 -8
BITMAP
00000C0000
00000C0000
00000C0000
00000C0000
0018000600
001C000E00
0008001C00
00003F0000
003E7FC000
00FFE1E000
01C1C06000
0380E03000
07007033E0
06003033E0
1E003E3000
3E003FF000
700003E000
600000E000
E00000E000
C007806000
C00F006000
C00F006C00
C00E006E00
601E00C600
701C01C000
3C3F8F8000
0C3F0E0000
0007000000
000E000000
000C000000
0008000000
0018000000
0010000000
0020000000
0020000000
ENDCHAR
STARTCHAR uniF006
ENCODING 61446
SWIDTH 1408 0
DWIDTH 35 0
BBX 35 35 0 -8
BITMAP
00000C0000
00000C0000
00000C0000
00000C0000
001C000600
001C000E00
0000001C00
00003F0800
003C7FC000
00FFE1E000
01F7C0E000
0380E07000
0300603000
07007033E0
0E003E31E0
3E003F7000
7C0007E000
700001E000
E00000E000
C000006000
C000006000
C060306E00
E06030EE00
606030C600
780003C000
3CCE678000
0CCC660000
000C000000
0180C00000
0198C00000
0198C00000
0000000000
0018000000
0038000000
0030000000
ENDCHAR
STARTCHAR uniF007
ENCODING 61447
SWIDTH 1408 0
DWIDTH 35 0
BBX 35 35 0 -8
BITMAP
00000C0000
00000C0000
00000C0000
00000C0200
001C000600
000C000E00
0000001C00
00003F0800
001E7FC000
00FFE1E000
01F7C06000
0380E07000
0300703000
07003033E0
0E003E31E0
3E003FF000
7C0007E000
700000E000
E00000E000
C000006000
C000006000
C000006E00
E00000E600
6030C0C200
7831C3C000
3C738F8000
08E31E0000
01C7380000
008E700000
001C600000
0638400000
0631800000
0001800000
00C0000000
00C0000000
ENDCHAR
STARTCHAR uniF008
ENCODING 61448
SWIDTH 1404 0
DWIDTH 35 0
BBX 35 36 0 -8
BITMAP
00000C0000
00000C0000
00000C0000
00000C0000
00180C0600
001C000E00
000C001C00
0000001800
00003F0000
003E7F8000
00FFE1C000
01C1C06000
0380E07000
0700703000
07003033E0
0E003E33E0
3E003FF000
700003E000
600000E000
C000006000
C000006000
C000006000
C063306C00
C06730EE00
606670C600
70E663C000
3CC66F8000
0CCE6E0000
00CCE00000
018CC00000
019CC00000
0018800000
0018000000
0018000000
0038000000
0010000000
ENDCHAR
STARTCHAR uniF009
ENCODING 61449
SWIDTH 1400 0
DWIDTH 35 0
BBX 35 35 0 -8
BITMAP
00000C0000
00000C0000
00000C0000
00000C0000
0018000600
001C000E00
0000001C00
00003F0800
003E7FC000
00FFE1C000
01F7C0E000
0380E07000
0300703000
07003033E0
0E003C31E0
3E003FF000
7C0007E000
700001E000
E00000E000
C000006000
C000006000
C060306C00
E06030EE00
606030C600
780003C000
3C06078000
0C0E060000
008CC00000
0180C00000
0180C00000
0000000000
0018000000
0018000000
0038000000
0010000000
ENDCHAR
STARTCHAR uniF00A
ENCODING 61450
SWIDTH 1398 0
DWIDTH 35 0
BBX 35 34 0 -7
BITMAP
00000C0000
00000C0000
00000C0000
00000C0000
001C000600
001C000E00
0000001C00
00003F0800
001C7FC000
00FFE1C000
01F7C0E000
0380E07000
0300607000
07007033E0
0E003E31C0
3E003F7000
7C0007E000
700001E000
E00000E000
C000006000
C000006000
C000006C00
E00000EE00
600E01C600
780403C000
3CC06F8000
0CC06E0000
0004000000
000E000000
0000000000
00C0600000
0040400000
0004000000
000E000000
ENDCHAR
STARTCHAR uniF00B
ENCODING 61451
SWIDTH 1398 0
DWIDTH 35 0
BBX 35 30 0 -3
BITMAP
00000C0000
00000C0000
00000C0000
00000C0200
001C000600
001C000E00
0008001C00
00003F0800
003E7FC000
00FFE1E000
01E1E06000
0380603000
03003033E0
07003033E0
0E003E3000
3E003FF000
780203E000
600300E000
E00300E000
C060006000
C0F0006000
C0F0006C00
C0F200EE00
606700C600
780781C000
3E0FCF8000
0E0FCE0000
000FC00000
000F800000
0007000000
ENDCHAR
STARTCHAR uniF00C
ENCODING 61452
SWIDTH 1240 0
DWIDTH 31 0
BBX 31 29 0 -2
BITMAP
0001C000
0001C000
0001C000
0001C000
0001C000
0E01C070
0F0000F0
078001E0
0183E1C0
000FF800
001FFC00
003C3E00
00780E00
00700F00
F0E0073E
F8E0073E
F8FC073E
01FF0700
03870F00
0703CE00
1F03FE00
1F03FC00
3C007800
380039C0
380039E0
3C0078F0
1FFFF070
1FFFF020
07FFC000
ENDCHAR
STARTCHAR uniF00D
ENCODING 61453
SWIDTH 1106 0
DWIDTH 28 0
BBX 28 27 0 -4
BITMAP
00060000
00060000
00060000
00060000
0C060600
0E000E00
07001C00
021F0800
003FC000
0070E000
00C06000
01C07000
01803000
F98031F0
F98031F0
01803000
00C06000
00F0E000
007FC000
021F0800
07001C00
0E000E00
0C060600
00060000
00060000
00060000
00060000
ENDCHAR
STARTCHAR uniF00E
ENCODING 61454
SWIDTH 1407 0
DWIDTH 35 0
BBX 35 35 0 -8
BITMAP
00000C0000
00000C0000
00000C0000
00000C0200
001C040600
001C000E00
0000001C00
00003F0800
003E7FC000
00FFE1E000
01F3C06000
0380E07000
0300703000
07003033E0
0E003E31E0
3E003FF000
780003E000
700000E000
E00000E000
C000006000
C000006000
C1E0306E00
E3C030E600
63C030C200
7B8003C000
3F86078000
0F06060000
0FEE600000
0FC0E00000
0180C00000
0380000000
0318000000
0218000000
0418000000
0010000000
ENDCHAR
STARTCHAR uniF010
ENCODING 61456
SWIDTH 1403 0
DWIDTH 35 0
BBX 35 34 0 -7
BITMAP
00000C0000
00000C0000
00000C0000
00000C0000
001C000600
001C000E00
0000001C00
00003F0000
003E7FC000
00FFE1E000
01F7C0E000
0380E07000
0300703000
07003033E0
0E003E31E0
3E003F7000
7C0007E000
700001E000
E00000E000
C000006000
C000006000
C1E3306E00
E3C730EE00
63C670C600
7B8663C000
3F86678000
0F0C660000
0FECE00000
0FCCC00000
019CC00000
0318000000
0318000000
0218000000
0418000000
ENDCHAR
STARTCHAR uniF011
ENCODING 61457
SWIDTH 1185 0
DWIDTH 30 0
BBX 29 24 0 -5
BITMAP
000FC000
003FE000
00787800
00E01800
00C01C00
01C00C00
03800F80
0F800FE0
1E078070
180F8030
3800C018
0000C018
0000C018
FFFF8018
FFFF0018
00000030
00000070
FF83FFE0
FFC3FF80
00600000
00600000
00600000
07C00000
03800000
ENDCHAR
STARTCHAR uniF012
ENCODING 61458
SWIDTH 1239 0
DWIDTH 31 0
BBX 31 23 0 -4
BITMAP
0003F000
000FF800
001E1C00
00380600
00300700
00700300
00E003E0
01E003F8
0380001C
0700000C
06000006
00000006
00000006
0FFF8006
0FFF8006
0000000C
0000001C
FFFCFFF8
FFFCFFE0
00000000
00000000
03FFF000
03FFE000
ENDCHAR
STARTCHAR uniF013
ENCODING 61459
SWIDTH 1157 0
DWIDTH 29 0
BBX 29 19 0 0
BITMAP
0001F000
0003FC00
00070C00
00F80600
01FE0600
038703C0
060383F0
06018030
1C01F018
3C01F818
70001C18
C0000630
C00006F0
C00006C0
C0000600
60000E00
70001C00
3FFFF800
1FFFF000
ENDCHAR
STARTCHAR uniF014
ENCODING 61460
SWIDTH 1289 0
DWIDTH 32 0
BBX 32 23 0 -4
BITMAP
0003F000
0007FC00
000E1E00
001C0700
00380300
00300380
007001F0
01F001F8
0380001C
0700000E
06000006
00000000
00000000
0FFFFFFC
0FFFFFFC
00000000
00000000
FFFFFFC0
FFFFFFC0
00000000
00000000
03FFFFFF
03FFFFFF
ENDCHAR
STARTCHAR uniF015
ENCODING 61461
SWIDTH 1079 0
DWIDTH 27 0
BBX 27 27 0 -8
BITMAP
007E0000
00FF8000
01C1C000
0380E000
07007000
06003000
0E003E00
3E003F80
700001C0
600000C0
C0000060
C0000060
C0000060
C0673060
C0673060
60E670C0
70E661C0
3CCE6780
0CCC6600
000C0000
001C0000
0198C000
00984000
00000000
00100000
00300000
00100000
ENDCHAR
STARTCHAR uniF016
ENCODING 61462
SWIDTH 733 0
DWIDTH 18 0
BBX 18 24 0 -3
BITMAP
0003C0
0003C0
000780
0F8780
0F8F00
1F8F00
1F0FC0
3E1F80
3E0380
3C0300
7C0600
7F8600
7F8C00
FF0800
0E0800
1E1000
1C0000
180000
380000
300000
600000
600000
400000
800000
ENDCHAR
STARTCHAR uniF017
ENCODING 61463
SWIDTH 1078 0
DWIDTH 27 0
BBX 27 27 0 -8
BITMAP
007E0000
00FF8000
01C3C000
0380E000
07007000
06003000
0E003E00
3E003F80
780001C0
600000C0
E00000E0
C0000060
C0000060
C0603060
C0603060
606030C0
700001C0
3CCC6780
0CCC6600
000C0000
0180C000
0198C000
0198C000
00000000
00300000
00300000
00300000
ENDCHAR
STARTCHAR uniF018
ENCODING 61464
SWIDTH 1080 0
DWIDTH 27 0
BBX 27 28 0 -9
BITMAP
003E0000
00FF8000
01C1C000
0380E000
07007000
07003000
0E003E00
3E003F80
700001C0
600000C0
C0000060
C0000060
C0000060
C0000060
C0000060
6030C0C0
7071C1C0
3C738F80
18E71F00
01C73800
018E7000
001C7000
04386000
0E300000
0C018000
00018000
00C00000
00C00000
ENDCHAR
STARTCHAR uniF019
ENCODING 61465
SWIDTH 1079 0
DWIDTH 27 0
BBX 27 26 0 -7
BITMAP
003E0000
00FF8000
01C1C000
0380E000
07007000
06003000
0E003E00
3E003F80
700001C0
600000C0
C0000060
C0000060
C0000060
C0633060
C0673060
606670C0
70E661C0
3CCE6780
0CCC6600
01CCE000
018CC000
019CC000
00180000
00180000
00180000
00380000
ENDCHAR
STARTCHAR uniF01A
ENCODING 61466
SWIDTH 1083 0
DWIDTH 27 0
BBX 27 27 0 -8
BITMAP
003E0000
00FF8000
01C1C000
0380E000
03007000
07003000
0E003E00
3E003F80
780001C0
600000C0
C0000060
C0000060
C0000060
C0603060
C0603060
606030C0
700001C0
3C060780
0C0E0600
00CCC000
01C0C000
0180C000
0180C000
00180000
00180000
00380000
00100000
ENDCHAR
STARTCHAR uniF01B
ENCODING 61467
SWIDTH 1079 0
DWIDTH 27 0
BBX 27 26 0 -7
BITMAP
007E0000
00FF8000
01C1C000
0380E000
07007000
06003000
0E003E00
3E003F80
700001C0
600000C0
E00000E0
C0000060
C0000060
C0000060
C0000060
600C00C0
700C01C0
3CC06780
0CC06600
000C0000
000C0000
00000000
00C06000
00C06000
000C0000
000C0000
ENDCHAR
STARTCHAR uniF01C
ENCODING 61468
SWIDTH 1079 0
DWIDTH 27 0
BBX 27 22 0 -3
BITMAP
003F0000
00FF8000
01E1E000
03806000
03007000
07003000
0E003E00
3E003F80
700201C0
600300C0
C0030060
C0600060
C0F00060
C0F00060
C0F00060
606300C0
700781C0
3C0FC780
0C0FC600
000FC000
000FC000
00070000
ENDCHAR
STARTCHAR uniF01D
ENCODING 61469
SWIDTH 1080 0
DWIDTH 27 0
BBX 27 27 0 -8
BITMAP
007E0000
00FF8000
01C1E000
0380E000
07007000
06003800
0E003E00
3E003F80
700001C0
E00000C0
C0000060
C0000060
C3E01860
C3C03860
E3C030E0
638030C0
778001C0
3F060780
0F0E0600
0FCE6000
0FCCE000
038CC000
03000000
02180000
02180000
04380000
00100000
ENDCHAR
STARTCHAR uniF01E
ENCODING 61470
SWIDTH 1080 0
DWIDTH 27 0
BBX 27 27 0 -8
BITMAP
003E0000
00FF8000
01C1C000
0380E000
07007000
06003000
0E003E00
3E003F80
700001C0
600000C0
C0000060
C0000060
C0000060
C3E33060
C3C73060
63C670C0
778661C0
3F866780
0F0E6600
0FECE000
0FCCC000
018CC000
039C0000
03180000
02180000
02180000
04000000
ENDCHAR
STARTCHAR uniF021
ENCODING 61473
SWIDTH 1078 0
DWIDTH 27 0
BBX 27 9 0 4
BITMAP
1FFFF800
1FFFF800
00000000
00000000
FFFFDFE0
FFFFDFE0
00000000
07FFFE00
07FFFE00
ENDCHAR
STARTCHAR uniF022
ENCODING 61474
SWIDTH 1251 0
DWIDTH 31 0
BBX 31 26 0 -5
BITMAP
000003E0
00000FE0
0007FC60
001FF860
003C3C70
00700C38
00600E1E
00E0060E
01C007C6
07C007FC
0F07803C
0C0FE018
1C06600C
0000600C
0000600C
FFFFC00C
FFFF800C
00000018
00000038
FFC1FFF0
FFE1FFC0
00300000
00300000
03300000
03E00000
01C00000
ENDCHAR
STARTCHAR uniF023
ENCODING 61475
SWIDTH 1317 0
DWIDTH 33 0
BBX 32 25 0 -4
BITMAP
000001F0
000007F0
0003FE30
000FFC30
001C1E38
00380E1C
0030070F
00700307
00E003E3
03E003FE
0780001E
0600000C
0E00000E
00000006
00000006
0FFFC006
0FFFC006
0000000C
0000001C
FFFCFFF8
FFFCFFE0
00000000
00000000
03FFF000
03FFF000
ENDCHAR
STARTCHAR uniF024
ENCODING 61476
SWIDTH 1135 0
DWIDTH 28 0
BBX 28 28 0 -7
BITMAP
00001F00
00007F00
007FE300
00FFC300
01C1E380
0380E1C0
070070F0
06003070
0E003E30
3E003FF0
700001E0
600000C0
C0000060
C0000060
C0000060
C0673060
C0673060
60E670C0
70C661C0
3CCE6780
0CCC6600
000C0000
019CC000
0198C000
00180000
00000000
00300000
00300000
ENDCHAR
STARTCHAR uniF025
ENCODING 61477
SWIDTH 1132 0
DWIDTH 28 0
BBX 28 26 0 -5
BITMAP
00001F00
00007F00
003FE300
00FFC300
01C1C380
0380E1C0
070070F0
06003070
0E003E30
3E003FE0
700001E0
600000C0
C0000060
C0078060
C00F0060
C00F0060
C01E0060
601E00C0
701C01C0
3C3F8780
0C3F0600
00060000
000E0000
000C0000
00080000
00100000
ENDCHAR
STARTCHAR uniF026
ENCODING 61478
SWIDTH 1138 0
DWIDTH 28 0
BBX 28 30 0 -8
BITMAP
00000400
00003F00
00007F00
001EE300
00FFC300
01F7C380
0380E1C0
030070F0
07003070
0E003E30
3E003FF0
7C0007E0
700000C0
E00000E0
C0000060
C0000060
C0603060
E06030E0
606030C0
780003C0
3CC66780
0CCE6600
000C0000
0180C000
0188C000
0198C000
00000000
00180000
00380000
00100000
ENDCHAR
STARTCHAR uniF027
ENCODING 61479
SWIDTH 1139 0
DWIDTH 28 0
BBX 28 29 0 -8
BITMAP
00001F00
00007F00
003FE300
00FFC300
01E1E380
038061C0
030070F0
07003070
0E003E30
3E003FF0
780001E0
600000C0
C0000060
C0000060
C0000060
C0000060
E00000E0
6038C0C0
7839C3C0
3C738F80
08E71E00
01C73800
008E7000
001C6000
06386000
06300000
00018000
00C08000
00C00000
ENDCHAR
STARTCHAR uniF028
ENCODING 61480
SWIDTH 1138 0
DWIDTH 28 0
BBX 28 28 0 -7
BITMAP
00001F00
00007F00
003FE300
00FFC300
01C1C380
0380E1C0
070070F0
06003070
0E003E30
3E003FE0
700001E0
600000C0
C00000E0
C0000060
C0000060
C0733060
C0673060
60E770C0
70E661C0
3CC66780
0CCE6600
01CEE000
018CC000
018CC000
001C0000
001C0000
00180000
00180000
ENDCHAR
STARTCHAR uniF029
ENCODING 61481
SWIDTH 1138 0
DWIDTH 28 0
BBX 28 29 0 -8
BITMAP
00001F80
00007F00
003FE300
00FFC300
01C1E380
0380E1C0
070070F0
06003070
0E003E30
3E003FF0
700001E0
600000C0
C0000060
C0000060
C0000060
C0603060
C0603060
60E030C0
700001C0
3C0C0780
0C0E0600
018CC000
0180C000
0180C000
00000000
00180000
00180000
00380000
00100000
ENDCHAR
STARTCHAR uniF02A
ENCODING 61482
SWIDTH 1138 0
DWIDTH 28 0
BBX 28 28 0 -7
BITMAP
00001F00
00007F00
007EE300
00FFC300
01C1E380
0380E1C0
070070F0
06003070
0E003E30
3E003FF0
700001E0
600000C0
C00000E0
C0000060
C0000060
C0000060
C0000060
600C00C0
700C01C0
3CC06780
0CC06600
000C0000
000C0000
00000000
00C06000
00C06000
000C0000
000C0000
ENDCHAR
STARTCHAR uniF02B
ENCODING 61483
SWIDTH 1134 0
DWIDTH 28 0
BBX 28 24 0 -3
BITMAP
00001F00
00007F00
003FE300
00FFC300
01E1E380
038061C0
030070F0
07003070
0E003E30
3E003FE0
780101E0
600300C0
C0030060
C0600060
C0F00060
C0F00060
E0F20060
606300C0
700781C0
3E0FC780
0E0FC600
000FC000
000FC000
00070000
ENDCHAR
STARTCHAR uniF02C
ENCODING 61484
SWIDTH 1136 0
DWIDTH 28 0
BBX 28 28 0 -7
BITMAP
00003F00
00007F00
007EE300
00FFC300
01C1E380
0380F1C0
070070F0
06003870
0E003E30
3E003FE0
700001E0
E00000C0
C0000060
C0000060
C3E03860
C3C03860
E3C038E0
638030C0
778001C0
3F060780
0F0E0600
0FCE4000
0FCCC000
038CC000
03000000
02180000
06180000
04380000
ENDCHAR
STARTCHAR uniF02D
ENCODING 61485
SWIDTH 1137 0
DWIDTH 28 0
BBX 28 28 0 -7
BITMAP
00001F00
00007F00
003FE300
00FFC300
01C1C380
0380E1C0
070070F0
06003070
0E003E30
3E003FF0
700001E0
600000C0
C0000060
C0000060
C0000060
C3E23060
C3C63060
63C670C0
778661C0
3F866780
0F0C6600
0FECE000
0FCCC000
0398C000
03180000
03180000
02180000
04300000
ENDCHAR
STARTCHAR uniF02E
ENCODING 61486
SWIDTH 738 0
DWIDTH 18 0
BBX 18 18 0 0
BITMAP
07E000
0FE000
3C6000
387000
707000
603800
C03E00
C00FC0
C007C0
C000C0
C000C0
C001C0
6001C0
700380
380700
1C1F00
0FFC00
03F000
ENDCHAR
STARTCHAR uniF02F
ENCODING 61487
SWIDTH 1244 0
DWIDTH 31 0
BBX 31 25 0 -5
BITMAP
000003E0
0007CFF8
001FFC3C
003C3C0C
00700C06
00600E06
00E00606
01C007C6
07C007FE
0F07803C
0C0FE01C
1C06600C
0000600C
0000600C
FFFFC00C
FFFF800C
00000018
00000038
FFC1FFF0
FFE1FFC0
00300000
00300000
03300000
03E00000
01E00000
ENDCHAR
STARTCHAR uniF030
ENCODING 61488
SWIDTH 1309 0
DWIDTH 33 0
BBX 33 24 0 -4
BITMAP
000000F800
0001F3FE00
0007FF0F00
000F0F0300
001C070380
0018038180
0038018180
007001F180
01F001FF80
03C0000F00
0380000700
0700000300
0000000300
0000000300
0FFFC00300
0FFFC00300
0000000600
0000000E00
FFFEFFFC00
FFFCFFF000
0000000000
0000000000
03FFF00000
03FFF00000
ENDCHAR
STARTCHAR uniF031
ENCODING 61489
SWIDTH 1114 0
DWIDTH 28 0
BBX 28 20 0 0
BITMAP
00003F00
003E7FC0
00FFE1E0
01C1E060
0380E030
07007030
06003030
0E003E30
3E003FF0
700001E0
600000E0
C0000060
C0000060
C0000060
C0000060
C0000060
600000C0
700001C0
3FFFFF80
0FFFFE00
ENDCHAR
STARTCHAR uniF032
ENCODING 61490
SWIDTH 1120 0
DWIDTH 28 0
BBX 28 27 0 -7
BITMAP
00001F00
003E7FC0
00FFE1E0
01C1E060
03806070
07007030
07003030
0E003E30
3E003FF0
700001E0
600000E0
C0000060
C0000060
C0000060
C0633060
C0663060
606630C0
70C671C0
3CCE6780
0CCC6600
000C0000
018CC000
0198C000
00080000
00000000
00300000
00300000
ENDCHAR
STARTCHAR uniF033
ENCODING 61491
SWIDTH 1115 0
DWIDTH 28 0
BBX 28 25 0 -5
BITMAP
00003F00
003E7FC0
00FFE1E0
01C1E060
0380E030
07007030
06003030
0E003E30
3E003FF0
700001E0
600000E0
C0000060
C0078060
C00F0060
C00F0060
C01E0060
601E00C0
701C01C0
3C3F8780
0C3F0600
00060000
000E0000
000C0000
00080000
00100000
ENDCHAR
STARTCHAR uniF034
ENCODING 61492
SWIDTH 1126 0
DWIDTH 28 0
BBX 28 28 0 -8
BITMAP
00003F80
003E7FC0
00FFE0E0
01F3C060
0380E070
03007030
07003030
0E003E30
3E003FF0
7C0003E0
700000E0
E00000E0
C0000060
C0000060
C0603060
E06030E0
606030C0
780003C0
3ECE6780
0ECC6600
000C0000
0180C000
0198C000
0198C000
00000000
00180000
00380000
00300000
ENDCHAR
STARTCHAR uniF035
ENCODING 61493
SWIDTH 1134 0
DWIDTH 28 0
BBX 28 28 0 -8
BITMAP
00003F00
003E7FC0
00FFE1E0
01C1E060
0380E030
07007030
06003030
0E003E30
3E003FF0
700001E0
600000E0
C0000060
C0000060
C0000060
C0000060
E00000E0
6030C0C0
7C71C7C0
1CE39F80
09C71E00
018E3800
001C7000
06386000
06380000
00018000
00018000
00C00000
00C00000
ENDCHAR
STARTCHAR uniF036
ENCODING 61494
SWIDTH 1118 0
DWIDTH 28 0
BBX 28 27 0 -7
BITMAP
00003F00
003E7FC0
00FFE1E0
01C1C060
0380E030
07007030
06003030
0E003E30
3E003FF0
700001E0
600000E0
C0000060
C0000060
C0000060
C0633060
C0673060
60E670C0
70C661C0
3CC66780
0CCE6600
01CCE000
018CC000
019CC000
00180000
00180000
00180000
00380000
ENDCHAR
STARTCHAR uniF037
ENCODING 61495
SWIDTH 1119 0
DWIDTH 28 0
BBX 28 28 0 -8
BITMAP
00003F00
003EFF80
00FFE1E0
01C1C060
0380E070
07007030
07003030
0E003E30
3E003FF0
700001E0
600000E0
C0000060
C0000060
C0203060
C0603060
E06030E0
606070C0
38000380
1E060780
0E0E0600
008CC000
01CCC000
0180C000
00008000
00180000
00180000
00380000
00100000
ENDCHAR
STARTCHAR uniF038
ENCODING 61496
SWIDTH 1121 0
DWIDTH 28 0
BBX 28 27 0 -7
BITMAP
00001F00
007E7FC0
00FFE1E0
01C1E060
0380E030
07007030
06003030
0E003E30
3E003FF0
700001E0
600000E0
C00000E0
C0000060
C0000060
C0000060
C0000060
600C00C0
700C01C0
3CC06780
0CC06600
000C0000
000C0000
00406000
00C06000
00C06000
000C0000
000C0000
ENDCHAR
STARTCHAR uniF039
ENCODING 61497
SWIDTH 1121 0
DWIDTH 28 0
BBX 28 23 0 -3
BITMAP
00003F00
003E7FC0
00FFE0E0
01C1E060
03806030
03007030
07003030
0E003E30
3E003FF0
700201E0
600700E0
C0070060
C0600060
C0F00060
C0F00060
E0F20060
606700C0
780781C0
3E0FC780
0E0FC600
000FC000
000F8000
00070000
ENDCHAR
STARTCHAR uniF03A
ENCODING 61498
SWIDTH 1120 0
DWIDTH 28 0
BBX 28 27 0 -7
BITMAP
00003F00
007EFF80
00FFC1E0
01C1C060
0380E070
07006030
06007030
0E003E30
3E003FF0
700003E0
600000E0
C00000E0
C0000060
C0000060
C3E03060
C3C03060
638030C0
778003C0
3F060F80
0F0E0E00
0FCEC000
0FCCC000
038CC000
03000000
03180000
02180000
04380000
ENDCHAR
STARTCHAR uniF03B
ENCODING 61499
SWIDTH 1117 0
DWIDTH 28 0
BBX 28 28 0 -8
BITMAP
00001F00
007E7FC0
00FFE1E0
01C1E060
0380E030
07007030
06003030
0E003E30
3E003FF0
700001E0
600000E0
C0000060
C0000060
C0000060
C3C63060
C3C63060
638E30C0
778E61C0
3F0C6780
0F0C6600
0FDCE000
0FD8C000
0398C000
03180000
03380000
02300000
04300000
04000000
ENDCHAR
STARTCHAR uniF03C
ENCODING 61500
SWIDTH 546 0
DWIDTH 14 0
BBX 13 12 0 4
BITMAP
70F0
8918
8A00
7200
0200
0200
0200
0200
0200
0208
0118
00F0
ENDCHAR
STARTCHAR uniF03D
ENCODING 61501
SWIDTH 1082 0
DWIDTH 27 0
BBX 27 19 0 0
BITMAP
007E0000
00FF8000
01C3C000
0380E000
07006000
06007000
0E003E00
3E003F80
700003C0
600C00C0
C00C00E0
C00C0060
C00C0060
C00C0060
C06DC0E0
607F80C0
703F03C0
3C1E0F80
0C0C0E00
ENDCHAR
STARTCHAR uniF03E
ENCODING 61502
SWIDTH 1080 0
DWIDTH 27 0
BBX 27 20 0 -1
BITMAP
003E0000
00FF8000
01C1C000
0380E000
07007000
06003000
0E003E00
3E0E3F80
700F01C0
603F80C0
C07F8060
C06F0060
C0CE0060
C0C86060
C0C06060
60C060C0
70E0E1C0
3C71C780
0C3F8600
001F0000
ENDCHAR
STARTCHAR uniF040
ENCODING 61504
SWIDTH 1079 0
DWIDTH 27 0
BBX 27 19 0 0
BITMAP
007E0000
00FF8000
01C3C000
0380E000
07006000
06007000
0E003E00
3E003F80
700003C0
600C00C0
C01E00E0
C03F0060
C07F8060
C06DC060
C00C80E0
600C00C0
700C03C0
3C0C0F80
0C0C0E00
ENDCHAR
STARTCHAR uniF041
ENCODING 61505
SWIDTH 1082 0
DWIDTH 27 0
BBX 27 19 0 0
BITMAP
003E0000
00FF8000
01C1C000
0380E000
07007000
06003000
0E003E00
3E003F80
700001C0
600000C0
C0000060
C0000060
C0000060
C0000060
C0000060
600000C0
700001C0
3FFFFF80
0FFFFE00
ENDCHAR
STARTCHAR uniF042
ENCODING 61506
SWIDTH 188 0
DWIDTH 5 0
BBX 5 5 0 14
BITMAP
70
88
88
88
70
ENDCHAR
STARTCHAR uniF043
ENCODING 61507
SWIDTH 330 0
DWIDTH 8 0
BBX 8 8 0 6
BITMAP
03
07
CE
DC
F8
F0
FC
FC
ENDCHAR
STARTCHAR uniF044
ENCODING 61508
SWIDTH 336 0
DWIDTH 8 0
BBX 8 13 0 3
BITMAP
18
18
18
18
18
18
18
18
DB
FF
7E
3C
18
ENDCHAR
STARTCHAR uniF045
ENCODING 61509
SWIDTH 555 0
DWIDTH 14 0
BBX 14 12 0 4
BITMAP
71FC
8900
8900
7100
0100
01F0
0100
0100
0100
0100
0100
0100
ENDCHAR
STARTCHAR uniF046
ENCODING 61510
SWIDTH 1134 0
DWIDTH 28 0
BBX 28 22 0 0
BITMAP
00060000
00060000
00060000
00060000
0C060300
0E000700
07000E00
07000C00
021F8000
007FE000
00F0F000
00C03000
01801800
F98019F0
F98019F0
01801800
01C03800
00000000
00000000
00000000
7FFFFFE0
7FFFFFE0
ENDCHAR
STARTCHAR uniF047
ENCODING 61511
SWIDTH 1048 0
DWIDTH 26 0
BBX 26 17 0 0
BITMAP
000C0000
000C0000
000C0000
000C0000
180C0600
1C000E00
1C001C00
0E001800
043F0000
00FF8000
01E1C000
01C0E000
03806000
00000000
00000000
FFFFFFC0
FFFFFFC0
ENDCHAR
STARTCHAR uniF048
ENCODING 61512
SWIDTH 527 0
DWIDTH 13 0
BBX 13 8 0 5
BITMAP
1800
3800
7000
FFF8
FFF8
7000
3800
1800
ENDCHAR
STARTCHAR uniF049
ENCODING 61513
SWIDTH 546 0
DWIDTH 14 0
BBX 14 15 0 2
BITMAP
7870
FCF8
FCFC
BD74
9528
78F8
3070
0000
0F80
0F80
1F80
1280
0A80
0700
0200
ENDCHAR
STARTCHAR uniF04A
ENCODING 61514
SWIDTH 1285 0
DWIDTH 32 0
BBX 32 26 0 -4
BITMAP
000001C0
000007E0
00001E60
0007FC60
001FF860
003C3C70
00701C38
00600E1E
00E0060E
01C007CE
03C007FC
0700003C
0E000018
0C00001C
00000000
00000000
0FFFFFFC
0FFFFFFC
00000000
00000000
FFFFFFC0
FFFFFFC0
00000000
00000000
03FFFFFF
03FFFFFF
ENDCHAR
STARTCHAR uniF04B
ENCODING 61515
SWIDTH 334 0
DWIDTH 8 0
BBX 9 13 0 3
BITMAP
0600
0700
1F80
7F00
6600
C000
C000
C000
C000
E000
7000
3E00
0E00
ENDCHAR
STARTCHAR uniF04C
ENCODING 61516
SWIDTH 544 0
DWIDTH 14 0
BBX 13 16 0 1
BITMAP
0400
0600
0700
1F80
3F80
7700
6600
C000
C008
C018
C018
E038
6030
70F0
3FE0
0F80
ENDCHAR
STARTCHAR uniF04D
ENCODING 61517
SWIDTH 527 0
DWIDTH 13 0
BBX 13 8 0 6
BITMAP
00C0
00E0
0070
FFF8
FFF8
0070
00E0
00C0
ENDCHAR
STARTCHAR uniF04E
ENCODING 61518
SWIDTH 415 0
DWIDTH 10 0
BBX 10 14 0 4
BITMAP
0200
0700
0700
6000
F000
F000
F200
0700
0780
0FC0
0FC0
0FC0
0FC0
0700
ENDCHAR
STARTCHAR uniF050
ENCODING 61520
SWIDTH 1239 0
DWIDTH 31 0
BBX 31 16 0 0
BITMAP
00000078
000000FE
00000046
00000006
FFFFFFFE
FFFFFFF8
00000000
00000000
00000000
7FFFFE00
7FFFFF00
00000300
00000300
00003300
00003F00
00001E00
ENDCHAR
STARTCHAR uniF051
ENCODING 61521
SWIDTH 1275 0
DWIDTH 32 0
BBX 32 25 0 0
BITMAP
0001C000
0001C000
0001C000
0001C000
0001C000
0601C060
070000E0
038001C0
0183E180
000FF800
003FFC00
003C3E00
00780E00
00700F00
00E00700
FCE0073F
FCE0073F
FCE0073F
00E00700
00718E00
0003C000
0007F000
01FF7F80
01FE3F80
01FC1F80
ENDCHAR
STARTCHAR uniF052
ENCODING 61522
SWIDTH 1262 0
DWIDTH 32 0
BBX 32 29 0 -4
BITMAP
0001C000
0001C000
0001C000
0001C000
0001C000
0601C070
070000F0
070001E0
038001C0
0107E180
001FF800
003FFC00
007C1E00
00700E00
00E00700
FCC0073F
FCC0073F
FCC0073F
00C00700
00600E00
00000000
00000000
01FC1F80
01FE3F80
01FF7F80
000FF000
0007E000
00038000
00010000
ENDCHAR
STARTCHAR uniF053
ENCODING 61523
SWIDTH 529 0
DWIDTH 13 0
BBX 13 29 0 -4
BITMAP
0700
0F80
18C0
18C0
18C0
18C0
18C0
18C0
18C0
18C0
18C0
18C0
18C0
18C0
18C0
18C0
18C0
38E0
7870
6030
E018
C018
C018
C018
C038
6030
70F0
3FE0
0F80
ENDCHAR
STARTCHAR uniF054
ENCODING 61524
SWIDTH 262 0
DWIDTH 7 0
BBX 7 16 0 0
BITMAP
10
10
10
10
10
10
10
10
10
10
7C
FE
FE
FE
FE
7C
ENDCHAR
STARTCHAR uniF055
ENCODING 61525
SWIDTH 529 0
DWIDTH 13 0
BBX 13 29 0 -4
BITMAP
0700
0F80
18C0
18C0
18C0
18C0
18C0
18C0
18C0
1AC0
1AC0
1AC0
1AC0
1AC0
1AC0
1AC0
1AC0
3AE0
7A70
6730
EF98
DF98
DFD8
DF98
CFB8
6730
7870
3FE0
0F80
ENDCHAR
STARTCHAR uniF056
ENCODING 61526
SWIDTH 724 0
DWIDTH 18 0
BBX 19 19 0 0
BITMAP
07FE00
3FFF80
7801E0
600060
3801E0
FFFF80
C3FF00
F00F00
FFFE00
CFF000
E07000
7FE000
1FC000
C18000
FF0000
7E0000
010000
3F0000
1E0000
ENDCHAR
STARTCHAR uniF057
ENCODING 61527
SWIDTH 330 0
DWIDTH 8 0
BBX 8 8 1 6
BITMAP
3F
3F
0F
1F
3B
73
E0
C0
ENDCHAR
STARTCHAR uniF058
ENCODING 61528
SWIDTH 337 0
DWIDTH 8 0
BBX 8 14 0 3
BITMAP
08
1C
3E
7F
FB
D9
18
18
18
18
18
18
18
08
ENDCHAR
STARTCHAR uniF059
ENCODING 61529
SWIDTH 748 0
DWIDTH 19 0
BBX 19 19 0 0
BITMAP
03F000
0FFE00
1E0F00
380380
7001C0
6000C0
E200C0
C38060
C1F060
C1FC60
C1F060
C38060
E200E0
6000C0
7001C0
380380
1E0F00
0FFE00
03F800
ENDCHAR
STARTCHAR uniF05A
ENCODING 61530
SWIDTH 748 0
DWIDTH 19 0
BBX 19 19 0 0
BITMAP
03F000
0FFE00
1E0F00
380380
7001C0
6000C0
E000C0
C03860
C0F860
C7F060
C1F060
C06060
E060E0
6040C0
7001C0
380380
1E0F00
0FFE00
03F800
ENDCHAR
STARTCHAR uniF05B
ENCODING 61531
SWIDTH 748 0
DWIDTH 19 0
BBX 19 19 0 0
BITMAP
03F000
0FFE00
1E0F00
380380
7001C0
6000C0
E200C0
C18060
C1F060
C0FC60
C0F860
C0E060
E060E0
6040C0
7001C0
380380
1E0F00
0FFE00
03F800
ENDCHAR
STARTCHAR uniF05C
ENCODING 61532
SWIDTH 750 0
DWIDTH 19 0
BBX 19 19 0 0
BITMAP
03F800
0FFE00
1E0F00
380380
7001C0
6040C0
E040C0
C0E060
C0E060
C0E060
C1F060
C1F060
E318E0
6000C0
7001C0
380380
1E0F00
0FFE00
03F800
ENDCHAR
STARTCHAR uniF05D
ENCODING 61533
SWIDTH 750 0
DWIDTH 19 0
BBX 19 19 0 0
BITMAP
03F000
0FFE00
1E0F00
380380
7001C0
6040C0
E0C0C0
C0E060
C3E060
C7E060
C1F060
C07060
E008E0
6000C0
7001C0
380380
1E0F00
0FFE00
03F800
ENDCHAR
STARTCHAR uniF05E
ENCODING 61534
SWIDTH 748 0
DWIDTH 19 0
BBX 19 19 0 0
BITMAP
03F000
0FFE00
1E0F00
380380
7001C0
6040C0
E060C0
C06060
C0F860
C0FC60
C1F060
C1C060
E200E0
6000C0
7001C0
380380
1E0F00
0FFE00
03F800
ENDCHAR
STARTCHAR uniF060
ENCODING 61536
SWIDTH 750 0
DWIDTH 19 0
BBX 19 19 0 0
BITMAP
03F800
0FFE00
1E0F00
380380
7001C0
6000C0
E318E0
C1F060
C1F060
C0E060
C0E060
C0E060
E040E0
6040C0
7001C0
380380
1E0F00
0FFE00
03F800
ENDCHAR
STARTCHAR uniF061
ENCODING 61537
SWIDTH 752 0
DWIDTH 19 0
BBX 19 19 0 0
BITMAP
03F800
0FFE00
1E0F00
380380
7001C0
6000C0
E008E0
C03860
C1F060
C7F060
C1F060
C03860
E008E0
6000C0
7001C0
380380
1E0F00
0FFE00
03F800
ENDCHAR
STARTCHAR uniF062
ENCODING 61538
SWIDTH 886 0
DWIDTH 22 0
BBX 23 25 0 -2
BITMAP
00F800
01FE00
038700
060180
0E0180
1C00F0
3800F8
60001C
C0000E
C00006
C00006
C00006
E0000C
70000C
3F0010
1F8010
01C330
00FFE0
00FFC0
00FFC0
007F80
003F00
001F00
001F00
000E00
ENDCHAR
STARTCHAR uniF063
ENCODING 61539
SWIDTH 798 0
DWIDTH 20 0
BBX 20 13 0 2
BITMAP
FDFF30
FDFF30
000000
1BFBE0
1BFBE0
000000
000000
FFDBF0
FFDBF0
000000
000000
6FEF80
6FEF80
ENDCHAR
STARTCHAR uniF064
ENCODING 61540
SWIDTH 1079 0
DWIDTH 27 0
BBX 27 26 0 -7
BITMAP
003F0000
00FF8000
01C1C000
03806000
07007000
06003000
0E003E00
3E003F80
700001C0
600000C0
E00000E0
C0000060
C0000060
C0000060
C0000060
600600C0
700601C0
3CC06780
0CC06600
000C0000
000C0000
00000000
0180C000
0180C000
00180000
00180000
ENDCHAR
STARTCHAR uniF065
ENCODING 61541
SWIDTH 1398 0
DWIDTH 35 0
BBX 35 34 0 -7
BITMAP
00000C0000
00000C0000
00000C0000
00000C0000
001C000600
001C000E00
0000001C00
00003F0800
001C7FC000
00FFE1C000
01F7C0E000
0380E07000
0300607000
07007033E0
0E003E31C0
3E003F7000
7C0007E000
700001E000
E00000E000
C000006000
C000006000
C000006C00
E00000EE00
600E01C600
780403C000
3CC06F8000
0CC06E0000
0008000000
000C000000
0000000000
0180C00000
0080800000
0018000000
0018000000
ENDCHAR
STARTCHAR uniF066
ENCODING 61542
SWIDTH 1121 0
DWIDTH 28 0
BBX 28 27 0 -7
BITMAP
00001F00
003F7FC0
00FFE1E0
01E1E060
03806030
07003030
06003030
0E003E30
3E003FF0
700001E0
600000E0
E00000E0
C0000060
C0000060
C0000060
C0000060
600600C0
700601C0
3CC06780
0CC06600
000C0000
000C0000
00000000
0180C000
0180C000
00180000
00180000
ENDCHAR
STARTCHAR uniF067
ENCODING 61543
SWIDTH 1138 0
DWIDTH 28 0
BBX 28 28 0 -7
BITMAP
00001F00
0000FF00
003FE300
00FF8300
01E1C380
0380E1C0
070060F0
06007070
0E003E30
3E003FF0
700003E0
600000C0
C00000E0
C0000060
C0000060
C0000060
C0000060
600600C0
700601C0
3CC0C780
0CC0C600
000C0000
000C0000
00000000
01818000
01818000
00180000
00180000
ENDCHAR
STARTCHAR uniF068
ENCODING 61544
SWIDTH 1407 0
DWIDTH 35 0
BBX 35 35 0 -8
BITMAP
00000C0000
00000C0000
00000C0000
00000C0200
001C040600
001C000E00
0000001C00
00003F0800
003E7FC000
00FFE1E000
01F3C06000
0380E07000
0300703000
07003033E0
0E003E31E0
3E003FF000
780003E000
700000E000
E00000E000
C000006000
C000006000
C1E0006E00
E3C000E600
63C000C200
7B8003C000
3F8E678000
0F0C660000
0FEC000000
0FC0C00000
0198C00000
0398C00000
0300000000
0218000000
0438000000
0030000000
ENDCHAR
STARTCHAR uniF069
ENCODING 61545
SWIDTH 1407 0
DWIDTH 35 0
BBX 28 28 0 -8
BITMAP
00001F00
007E7FC0
00FFE1E0
01C1E060
0380E030
07007030
06003030
0E003E30
3E003FF0
700001E0
600000E0
C0000060
C0000060
C0000060
C3E00060
C3C00060
63C000C0
778001C0
3F8C6780
0F0C6600
0FEC0000
0FC0C000
0398C000
0318C000
03000000
06300000
04300000
00300000
ENDCHAR
STARTCHAR uniF06A
ENCODING 61546
SWIDTH 1136 0
DWIDTH 28 0
BBX 28 29 0 -8
BITMAP
00001F00
00007F00
007FE300
00FFC300
01C1E380
0380E1C0
070070F0
06003070
0E003E30
3E003FE0
700001E0
600000C0
C0000060
C0000060
C0000060
C3E00060
C3C00060
63C000C0
778001C0
3F8C6780
0F0C6600
0FEC0000
0FC0C000
0398C000
0318C000
03000000
06300000
04300000
00300000
ENDCHAR
STARTCHAR uniF06B
ENCODING 61547
SWIDTH 1407 0
DWIDTH 35 0
BBX 35 34 0 -7
BITMAP
00000C0000
00000C0000
00000C0000
00000C0200
001C040600
001C000E00
0000001C00
00003F0800
003E7FC000
00FFE1E000
01F3C06000
0380E07000
0300703000
07003033E0
0E003E31E0
3E003FF000
780003E000
700000E000
E00000E000
C000006000
C000006000
C1E0006E00
E3C000E600
63C600C200
7B8403C000
3F80678000
0F00660000
0FE4000000
0FCE000000
0184000000
0380600000
0300400000
0204000000
0406000000
ENDCHAR
STARTCHAR uniF06C
ENCODING 61548
SWIDTH 1122 0
DWIDTH 28 0
BBX 28 28 0 -8
BITMAP
00001F00
007E7FC0
00FFE1E0
01C1E060
0380E030
07007030
06003030
0E003E30
3E003FF0
700001E0
600000E0
C00000E0
C0000060
C0000060
C3E00060
C3C00060
638C00C0
778C01C0
3F006780
0F006600
0FCC0000
0FCC0000
0F800000
03006000
03006000
060C0000
040C0000
08000000
ENDCHAR
STARTCHAR uniF06D
ENCODING 61549
SWIDTH 1136 0
DWIDTH 28 0
BBX 28 28 0 -7
BITMAP
00003F00
00007F00
007EE300
00FFC300
01C1E380
0380E1C0
070070F0
06003070
0E003E30
3E003FE0
700001E0
600000C0
C00000E0
C0000060
C0000060
C3E00060
C3C00060
638C00C0
778C01C0
3F006780
0F006600
0FCC0000
0FCC0000
0F800000
03006000
03006000
020C0000
040C0000
ENDCHAR
STARTCHAR uniF06E
ENCODING 61550
SWIDTH 1106 0
DWIDTH 28 0
BBX 28 27 0 -4
BITMAP
00060000
00060000
00060000
00060000
0C060600
0E000E00
07001C00
020F0800
003FC000
007CE000
00FE6000
00FF7000
01FF3000
F9FFB1F0
F9FFB1F0
01FF3000
00FF6000
007EE000
003FC000
031F0800
07001C00
0E000E00
0C060600
00060000
00060000
00060000
00060000
ENDCHAR
STARTCHAR uniF070
ENCODING 61552
SWIDTH 541 0
DWIDTH 14 0
BBX 13 13 0 3
BITMAP
0F80
3FE0
7E70
7FB0
FF98
FFD8
FFD8
FFD8
FFD8
7FB0
7F70
3FE0
0F80
ENDCHAR
STARTCHAR uniF071
ENCODING 61553
SWIDTH 824 0
DWIDTH 21 0
BBX 20 28 0 -4
BITMAP
000010
000020
000020
000040
0000C0
000180
001390
001730
003F60
007EE0
00FFC0
01FFC0
03FF80
07FF80
0FFF60
1FFFC0
187F80
201F80
601F00
C00F00
C00E00
C00E00
C00C00
E01800
601800
387000
1FE000
0FC000
ENDCHAR
STARTCHAR uniF072
ENCODING 61554
SWIDTH 1131 0
DWIDTH 28 0
BBX 28 26 0 -3
BITMAP
00060000
00060000
00060000
00060000
0C000300
0E000700
07000E00
001F8400
003FE000
0070F000
00E07000
00C03800
01C01800
F98019F0
F90000F0
00421000
00E73800
01CE7000
01CE7000
00C63000
00E73800
00739C00
00318C00
00718C00
00739C00
00631800
ENDCHAR
STARTCHAR uniF073
ENCODING 61555
SWIDTH 411 0
DWIDTH 10 0
BBX 10 19 0 0
BITMAP
0600
0E00
1800
3000
6000
7E00
7F80
E180
C0C0
C0C0
C0C0
E1C0
7F80
1F80
0180
0300
0600
1C00
1800
ENDCHAR
STARTCHAR uniF074
ENCODING 61556
SWIDTH 901 0
DWIDTH 23 0
BBX 21 24 1 -2
BITMAP
01F800
03FC00
07FE00
0FFE00
0FFE00
3FFFE0
7FFFF0
FFFFF8
FFFFF8
FFFFF8
FFFFF8
FFFFF8
7FFFF0
7FFFF0
1FFFE0
01FFE0
01FFC0
01FF80
01FF80
00FF00
007E00
003E00
003E00
001C00
ENDCHAR
STARTCHAR uniF075
ENCODING 61557
SWIDTH 766 0
DWIDTH 19 0
BBX 19 22 0 -1
BITMAP
00E000
07FC00
1FFF00
3FFF80
3FFFC0
7FFFC0
7FFFE0
7FFFE0
FFFFE0
5FFF60
43F860
41F040
40E040
2040C0
304180
184300
0FFF00
0FFE00
07FC00
03F800
01F000
00E000
ENDCHAR
STARTCHAR uniF076
ENCODING 61558
SWIDTH 785 0
DWIDTH 20 0
BBX 20 20 0 0
BITMAP
006000
006000
000000
186180
186180
066600
076E00
03FC00
01F800
DFFFB0
DFFFB0
01F800
01F800
036C00
066600
066600
186180
186180
006000
006000
ENDCHAR
STARTCHAR uniF077
ENCODING 61559
SWIDTH 1002 0
DWIDTH 25 0
BBX 24 23 0 -1
BITMAP
008000
008000
00C000
01E000
03F000
0FFC00
03E000
01C000
00C000
008008
000008
00001C
20003E
30007F
FC001C
300008
201008
001800
003C00
00FE00
003800
001000
001000
ENDCHAR
STARTCHAR uniF078
ENCODING 61560
SWIDTH 541 0
DWIDTH 14 0
BBX 14 17 0 2
BITMAP
0300
0780
0FC0
1FE0
3FF0
3FF0
7FF8
7FF8
FFFC
FFFC
FFFC
FFFC
FFFC
7FF8
7FF8
3FF0
0FC0
ENDCHAR
STARTCHAR uniF079
ENCODING 61561
SWIDTH 762 0
DWIDTH 19 0
BBX 19 23 0 -2
BITMAP
01F800
07FE00
1E0700
382380
3025C0
6424C0
6208E0
C00860
C01860
DC3360
C07060
C0F060
E0F0E0
6060C0
7001C0
380380
1E0700
0FFE00
03FC00
01F800
01F800
01F800
01F800
ENDCHAR
STARTCHAR uniF07A
ENCODING 61562
SWIDTH 739 0
DWIDTH 18 0
BBX 19 25 0 -4
BITMAP
00C000
01E000
03F000
03F800
07FC00
0FFE00
1FFE00
1FF700
31E780
24EF80
64CFC0
64DFC0
E49FE0
E09FE0
FBB0E0
FF2460
FF6460
FE6460
7EE440
7CE0C0
3DF180
3FFF00
1FFE00
07FC00
004000
ENDCHAR
STARTCHAR uniF07B
ENCODING 61563
SWIDTH 848 0
DWIDTH 21 0
BBX 21 9 0 5
BITMAP
000C00
E709C0
F719E0
F71BE0
FF3360
FF3370
EF27F0
EF67F8
E76638
ENDCHAR
STARTCHAR uniF07C
ENCODING 61564
SWIDTH 864 0
DWIDTH 22 0
BBX 22 19 0 0
BITMAP
007800
00FC00
01FE00
01B600
003000
003000
003000
003000
003000
003000
003000
813204
C3870C
FFFFFC
FFFFFC
FFFFFC
FFFFFC
FFFFFC
7FFFF8
ENDCHAR
STARTCHAR uniF07D
ENCODING 61565
SWIDTH 1150 0
DWIDTH 29 0
BBX 29 25 0 -3
BITMAP
00F80000
03FC0000
070E0000
06030000
0C030000
1C01E000
3C01F060
700038C0
E0001DC0
C0000C00
C0000C00
C0000E00
E0001E00
70003F00
3FFFFB78
1FFFE378
00060700
00070E00
0003FC00
0008F800
001801C0
003000C0
00206040
00006000
00006000
ENDCHAR
STARTCHAR uniF07E
ENCODING 61566
SWIDTH 1189 0
DWIDTH 30 0
BBX 30 26 0 -3
BITMAP
003E0000
00FF8000
01C1C000
0380E000
07007000
06003000
0E003E00
3E003F80
700001C0
600000C0
C0000060
C0000060
C0000060
C0000060
600000C0
700001C0
3FFFFFE0
0FFFFE3C
0001800C
0001800C
00018008
0000C018
0000E038
00007070
00003FE0
00000F80
ENDCHAR
STARTCHAR uniF080
ENCODING 61568
SWIDTH 1189 0
DWIDTH 30 0
BBX 30 26 0 -3
BITMAP
003E0000
00FF8000
01C1C000
0380E000
07007000
06003000
0E003E00
3E003F80
700001C0
600000C0
C0000060
C0000060
C0000060
C0000060
C0000070
600000D8
700001DC
3FFFFF8C
0FFFFE0C
0001800C
0001800C
0001C01C
0000E038
00007070
00003FE0
00000F80
ENDCHAR
STARTCHAR uniF081
ENCODING 61569
SWIDTH 856 0
DWIDTH 21 0
BBX 21 21 0 -2
BITMAP
001F80
007F80
00FF80
01E380
01C380
0383C0
0381C0
03E0F0
07F078
0FF838
0E3C38
1C1F30
7C1FF0
7C0FE0
F001E0
E000E0
E000E0
F001E0
7FFFC0
7FFFC0
1FFF00
ENDCHAR
STARTCHAR uniF082
ENCODING 61570
SWIDTH 1239 0
DWIDTH 31 0
BBX 31 18 0 0
BITMAP
01800000
01800000
00061878
180618FC
18000046
00000006
FFFFFFFE
FFFFFFFC
00000000
00000000
00000000
FFFFFC30
FFFFFE30
00000700
00000300
01802700
31867E00
30063C00
ENDCHAR
STARTCHAR uniF083
ENCODING 61571
SWIDTH 856 0
DWIDTH 21 0
BBX 22 21 0 -2
BITMAP
001F80
007FE0
00FFF0
00F0F8
01C078
01803C
03801C
03801C
03E01C
07F81C
0E3C3C
1C1F38
7C0FF8
7C0FF0
F001E0
E000E0
E000E0
F001E0
7FFFC0
7FFFC0
1FFF00
ENDCHAR
STARTCHAR uniF084
ENCODING 61572
SWIDTH 1082 0
DWIDTH 27 0
BBX 27 24 0 -3
BITMAP
00060000
000F0000
00FFF000
03C03C00
0F000E00
1C000300
38000180
300000C0
700000C0
6F0F0F60
FFBFDFE0
E0F67060
00060000
00060000
00060000
00060000
00060000
00060000
00060000
01860000
01860000
01860000
00FC0000
00780000
ENDCHAR
STARTCHAR uniF085
ENCODING 61573
SWIDTH 1408 0
DWIDTH 35 0
BBX 35 32 0 -5
BITMAP
00000C0000
00000C0000
00000C0000
00000C0000
001C0C0600
001E000E00
000F001C00
00021F0800
00007F8000
0000E1C000
0001C06000
0001C07000
0001803000
01F00033E0
01F00033E0
0000003000
0003806000
0007C1E000
000667C000
0000670800
0000601C00
FFFFC01E00
7FFFCC0E00
00000C0400
00000C0000
FFC00C0000
FFE00C0000
0030000000
0030000000
0330000000
03E0000000
03C0000000
ENDCHAR
STARTCHAR uniF086
ENCODING 61574
SWIDTH 1130 0
DWIDTH 28 0
BBX 28 21 0 0
BITMAP
00001F00
00007F00
003FE300
00FFC300
01C1E380
0380E1C0
070070F0
06003070
0E003E30
3E003FE0
700001E0
600000C0
C0000060
C0000060
C0000060
C0000060
C0000060
600000C0
700001C0
3FFFFF80
0FFFFE00
ENDCHAR
STARTCHAR uniF087
ENCODING 61575
SWIDTH 330 0
DWIDTH 8 0
BBX 8 8 0 6
BITMAP
F8
F8
F0
F8
DC
0E
07
03
ENDCHAR
STARTCHAR uniF088
ENCODING 61576
SWIDTH 330 0
DWIDTH 8 0
BBX 8 8 1 6
BITMAP
C0
E0
70
3B
1F
0F
1F
1F
ENDCHAR
STARTCHAR uniF089
ENCODING 61577
SWIDTH 750 0
DWIDTH 19 0
BBX 19 19 0 0
BITMAP
03F800
0FFE00
1E0F00
384380
7041C0
6040C0
E040E0
C04060
C04060
C04060
C00060
C00060
E000E0
6000C0
7001C0
380380
1E0F00
0FFE00
03F800
ENDCHAR
STARTCHAR uniF08A
ENCODING 61578
SWIDTH 750 0
DWIDTH 19 0
BBX 19 19 0 0
BITMAP
03F800
0FFE00
1E0F00
384380
7041C0
6050C0
E070E0
C06060
C06060
C04060
C00060
C00060
E000E0
6000C0
7001C0
380380
1E0F00
0FFE00
03F800
ENDCHAR
STARTCHAR uniF08B
ENCODING 61579
SWIDTH 750 0
DWIDTH 19 0
BBX 19 19 0 0
BITMAP
03F800
0FFE00
1E0F00
384380
7041C0
6040C0
E040E0
C05C60
C07860
C06060
C00060
C00060
E000E0
6000C0
7001C0
380380
1E0F00
0FFE00
03F800
ENDCHAR
STARTCHAR uniF08C
ENCODING 61580
SWIDTH 750 0
DWIDTH 19 0
BBX 19 19 0 0
BITMAP
03F800
0FFE00
1E0F00
380380
7041C0
6040C0
E040E0
C04060
C04060
C07C60
C00060
C00060
E000E0
6000C0
7001C0
380380
1E0F00
0FFE00
03F800
ENDCHAR
STARTCHAR uniF08D
ENCODING 61581
SWIDTH 750 0
DWIDTH 19 0
BBX 19 19 0 0
BITMAP
03F800
0FFE00
1E0F00
384380
7041C0
6040C0
E040E0
C04060
C04060
C06060
C03860
C00860
E000E0
6000C0
7001C0
380380
1E0F00
0FFE00
03F800
ENDCHAR
STARTCHAR uniF08E
ENCODING 61582
SWIDTH 750 0
DWIDTH 19 0
BBX 19 19 0 0
BITMAP
03F800
0FFE00
1E0F00
384380
7041C0
6040C0
E040E0
C04060
C04060
C04060
C06060
C02060
E030E0
6010C0
7001C0
380380
1E0F00
0FFE00
03F800
ENDCHAR
STARTCHAR uniF08F
ENCODING 61583
SWIDTH 750 0
DWIDTH 19 0
BBX 19 19 0 0
BITMAP
03F800
0FFE00
1E0F00
384380
7041C0
6040C0
E040E0
C04060
C04060
C04060
C04060
C04060
E040E0
6040C0
7001C0
380380
1E0F00
0FFE00
03F800
ENDCHAR
STARTCHAR uniF090
ENCODING 61584
SWIDTH 750 0
DWIDTH 19 0
BBX 19 19 0 0
BITMAP
03F800
0FFE00
1E0F00
384380
7041C0
6040C0
E040E0
C04060
C04060
C04060
C0C060
C08060
E180E0
6100C0
7001C0
380380
1E0F00
0FFE00
03F800
ENDCHAR
STARTCHAR uniF091
ENCODING 61585
SWIDTH 750 0
DWIDTH 19 0
BBX 19 19 0 0
BITMAP
03F800
0FFE00
1E0F00
384380
7041C0
6040C0
E040E0
C04060
C04060
C0C060
C38060
C60060
E000E0
6000C0
7001C0
380380
1E0F00
0FFE00
03F800
ENDCHAR
STARTCHAR uniF092
ENCODING 61586
SWIDTH 750 0
DWIDTH 19 0
BBX 19 19 0 0
BITMAP
03F800
0FFE00
1E0F00
380380
7041C0
6040C0
E040E0
C04060
C04060
C7C060
C00060
C00060
E000E0
6000C0
7001C0
380380
1E0F00
0FFE00
03F800
ENDCHAR
STARTCHAR uniF093
ENCODING 61587
SWIDTH 750 0
DWIDTH 19 0
BBX 19 19 0 0
BITMAP
03F800
0FFE00
1E0F00
384380
7041C0
6040C0
E040E0
C74060
C3C060
C0C060
C00060
C00060
E000E0
6000C0
7001C0
380380
1E0F00
0FFE00
03F800
ENDCHAR
STARTCHAR uniF094
ENCODING 61588
SWIDTH 750 0
DWIDTH 19 0
BBX 19 19 0 0
BITMAP
03F800
0FFE00
1E0F00
384380
7041C0
6140C0
E1C0E0
C0C060
C0C060
C04060
C00060
C00060
E000E0
6000C0
7001C0
380380
1E0F00
0FFE00
03F800
ENDCHAR
STARTCHAR uniF095
ENCODING 61589
SWIDTH 750 0
DWIDTH 19 0
BBX 19 19 0 0
BITMAP
03F800
0E0E00
180300
200180
6000C0
400040
C00060
800020
800020
800020
800020
800020
C00060
400040
6000C0
200180
180300
0E0E00
03F800
ENDCHAR
STARTCHAR uniF096
ENCODING 61590
SWIDTH 750 0
DWIDTH 19 0
BBX 9 19 10 0
BITMAP
C000
3000
1C00
0E00
0700
0700
0300
0380
0380
0380
0380
0380
0380
0700
0700
0600
0C00
1800
6000
ENDCHAR
STARTCHAR uniF097
ENCODING 61591
SWIDTH 750 0
DWIDTH 19 0
BBX 9 19 10 0
BITMAP
C000
3000
1C00
1E00
0F00
0F00
0700
0780
0780
0780
0780
0780
0780
0700
0F00
0E00
1C00
3800
6000
ENDCHAR
STARTCHAR uniF098
ENCODING 61592
SWIDTH 750 0
DWIDTH 19 0
BBX 9 19 10 0
BITMAP
C000
7000
3C00
1E00
1F00
1F00
0F00
0F80
0F80
0F80
0F80
0F80
0F80
0F00
1F00
1E00
3C00
3800
6000
ENDCHAR
STARTCHAR uniF099
ENCODING 61593
SWIDTH 750 0
DWIDTH 19 0
BBX 9 19 10 0
BITMAP
C000
7800
7C00
3E00
3F00
1F00
1F00
1F80
1F80
1F80
1F80
1F80
1F80
1F00
3F00
3E00
3C00
7800
E000
ENDCHAR
STARTCHAR uniF09A
ENCODING 61594
SWIDTH 750 0
DWIDTH 19 0
BBX 9 19 9 0
BITMAP
C000
7800
7C00
7E00
7F00
3F00
3F00
3F80
3F80
3F80
3F80
3F80
3F80
3F00
3F00
7E00
7C00
7800
E000
ENDCHAR
STARTCHAR uniF09B
ENCODING 61595
SWIDTH 750 0
DWIDTH 19 0
BBX 9 19 9 0
BITMAP
C000
7800
7C00
7E00
7F00
3F00
3F00
3F80
3F80
3F80
3F80
3F80
3F80
3F00
3F00
7E00
7C00
7800
E000
ENDCHAR
STARTCHAR uniF09C
ENCODING 61596
SWIDTH 750 0
DWIDTH 19 0
BBX 9 19 9 0
BITMAP
C000
F800
FC00
FE00
FF00
FF00
FF00
FF80
FF80
FF80
FF80
FF80
FF80
FF00
FF00
FE00
FC00
F800
E000
ENDCHAR
STARTCHAR uniF09D
ENCODING 61597
SWIDTH 750 0
DWIDTH 19 0
BBX 10 19 8 0
BITMAP
6000
7800
FE00
FF00
FF80
FF80
FF80
FFC0
FFC0
FFC0
FFC0
FFC0
FFC0
FF80
FF80
FF00
FE00
7C00
7000
ENDCHAR
STARTCHAR uniF09E
ENCODING 61598
SWIDTH 750 0
DWIDTH 19 0
BBX 11 19 8 0
BITMAP
3000
7C00
7F00
7F80
FFC0
FFC0
FFC0
FFE0
FFE0
FFE0
FFE0
FFE0
FFE0
FFC0
FFC0
7F80
7F00
7E00
7800
ENDCHAR
STARTCHAR uniF09F
ENCODING 61599
SWIDTH 750 0
DWIDTH 19 0
BBX 12 19 7 0
BITMAP
3800
3E00
7F80
7FC0
7FC0
FFE0
FFE0
FFF0
FFF0
FFF0
FFF0
FFF0
FFF0
FFE0
FFE0
7FC0
7F80
3F00
3C00
ENDCHAR
STARTCHAR uniF0A0
ENCODING 61600
SWIDTH 750 0
DWIDTH 19 0
BBX 13 19 6 0
BITMAP
1C00
3F00
3FC0
7FE0
7FE0
7FF0
FFF0
FFF8
FFF8
FFF8
FFF8
FFF8
FFF8
FFF0
7FF0
7FE0
7FC0
3F80
1E00
ENDCHAR
STARTCHAR uniF0A1
ENCODING 61601
SWIDTH 750 0
DWIDTH 19 0
BBX 14 19 5 0
BITMAP
0E00
1F80
3FE0
3FF0
7FF0
7FF8
FFF8
FFFC
FFFC
FFFC
FFFC
FFFC
FFFC
FFF8
7FF8
7FF0
3FE0
1FC0
0F00
ENDCHAR
STARTCHAR uniF0A2
ENCODING 61602
SWIDTH 750 0
DWIDTH 19 0
BBX 15 19 4 0
BITMAP
0700
1FC0
3FF0
3FF8
7FF8
7FFC
FFFC
FFFE
FFFE
FFFE
FFFE
FFFE
FFFE
FFFC
7FFC
7FF8
3FF0
1FE0
0F80
ENDCHAR
STARTCHAR uniF0A3
ENCODING 61603
SWIDTH 750 0
DWIDTH 19 0
BBX 19 19 0 0
BITMAP
03F800
0FFE00
1FFF00
3FFF80
7FFFC0
7FFFC0
FFFFE0
FFFFE0
FFFFE0
FFFFE0
FFFFE0
FFFFE0
FFFFE0
7FFFC0
7FFFC0
3FFF80
1FFF00
0FFE00
03F800
ENDCHAR
STARTCHAR uniF0A4
ENCODING 61604
SWIDTH 750 0
DWIDTH 19 0
BBX 16 19 0 0
BITMAP
00C0
07F0
1FF8
3FFC
3FFE
7FFE
7FFF
FFFF
FFFF
FFFF
FFFF
FFFF
FFFF
7FFE
7FFE
3FFE
1FFC
0FF8
03E0
ENDCHAR
STARTCHAR uniF0A5
ENCODING 61605
SWIDTH 750 0
DWIDTH 19 0
BBX 15 19 0 0
BITMAP
00C0
07E0
1FF0
3FF8
3FFC
7FFC
7FFE
FFFE
FFFE
FFFE
FFFE
FFFE
FFFE
7FFC
7FFC
3FFC
1FF8
0FF0
03E0
ENDCHAR
STARTCHAR uniF0A6
ENCODING 61606
SWIDTH 750 0
DWIDTH 19 0
BBX 14 19 0 0
BITMAP
01C0
07E0
1FF0
3FF0
3FF8
7FF8
7FFC
FFFC
FFFC
FFFC
FFFC
FFFC
FFFC
7FFC
7FF8
3FF8
1FF0
0FE0
03C0
ENDCHAR
STARTCHAR uniF0A7
ENCODING 61607
SWIDTH 750 0
DWIDTH 19 0
BBX 13 19 0 0
BITMAP
00C0
07C0
1FE0
3FF0
3FF0
7FF0
7FF8
FFF8
FFF8
FFF8
FFF8
FFF8
FFF8
7FF8
7FF0
3FF0
1FE0
0FE0
03C0
ENDCHAR
STARTCHAR uniF0A8
ENCODING 61608
SWIDTH 750 0
DWIDTH 19 0
BBX 12 19 0 0
BITMAP
0080
07C0
1FC0
3FE0
3FE0
7FF0
7FF0
FFF0
FFF0
FFF0
FFF0
FFF0
FFF0
7FF0
7FE0
3FE0
1FE0
0FC0
03C0
ENDCHAR
STARTCHAR uniF0A9
ENCODING 61609
SWIDTH 750 0
DWIDTH 19 0
BBX 11 19 0 0
BITMAP
0180
07C0
1FC0
3FC0
7FC0
7FE0
7FE0
FFE0
FFE0
FFE0
FFE0
FFE0
FFE0
7FE0
7FE0
3FC0
1FC0
0FC0
0380
ENDCHAR
STARTCHAR uniF0AA
ENCODING 61610
SWIDTH 750 0
DWIDTH 19 0
BBX 9 19 0 0
BITMAP
0180
0F80
1F80
3F80
7F80
7F80
FF80
FF80
FF80
FF80
FF80
FF80
FF80
7F80
7F80
3F80
1F80
0F80
0380
ENDCHAR
STARTCHAR uniF0AB
ENCODING 61611
SWIDTH 750 0
DWIDTH 19 0
BBX 9 19 0 0
BITMAP
0180
0780
1F80
3F80
7F00
7F00
FF00
FF00
FF00
FF00
FF00
FF00
FF00
7F00
7F00
3F00
1F80
0F80
0380
ENDCHAR
STARTCHAR uniF0AC
ENCODING 61612
SWIDTH 750 0
DWIDTH 19 0
BBX 9 19 0 0
BITMAP
0180
0780
1F00
3F00
3F00
7E00
7E00
FE00
FE00
FE00
FE00
FE00
FE00
7E00
7F00
3F00
1F00
0F80
0380
ENDCHAR
STARTCHAR uniF0AD
ENCODING 61613
SWIDTH 750 0
DWIDTH 19 0
BBX 9 19 0 0
BITMAP
0080
0780
1F00
3E00
3E00
7E00
7C00
FC00
FC00
FC00
FC00
FC00
FC00
7C00
7E00
3E00
1F00
0F00
0180
ENDCHAR
STARTCHAR uniF0AE
ENCODING 61614
SWIDTH 750 0
DWIDTH 19 0
BBX 9 19 0 0
BITMAP
0180
0E00
1C00
3C00
7800
7800
F000
F000
F000
F000
F000
F000
F000
7000
7800
3800
1C00
0E00
0300
ENDCHAR
STARTCHAR uniF0AF
ENCODING 61615
SWIDTH 750 0
DWIDTH 19 0
BBX 9 19 0 0
BITMAP
0180
0600
1C00
3800
7000
7000
E000
E000
E000
E000
E000
E000
E000
7000
7000
3000
1800
0C00
0300
ENDCHAR
STARTCHAR uniF0B0
ENCODING 61616
SWIDTH 750 0
DWIDTH 19 0
BBX 9 19 0 0
BITMAP
0180
0600
1800
3000
6000
6000
4000
C000
C000
C000
C000
C000
C000
6000
6000
3000
1800
0C00
0300
ENDCHAR
STARTCHAR uniF0B1
ENCODING 61617
SWIDTH 750 0
DWIDTH 19 0
BBX 19 19 0 0
BITMAP
03F800
0FFE00
1E0F00
384380
7041C0
6040C0
E0E0C0
C0E060
C0E060
C0E060
C1F060
C1F060
E1F0E0
63F8C0
7209C0
380380
1E0F00
0FFE00
03F800
ENDCHAR
STARTCHAR uniF0B2
ENCODING 61618
SWIDTH 1407 0
DWIDTH 35 0
BBX 35 35 0 -8
BITMAP
00000C0000
00000C0000
00000C0000
00000C0200
001C000600
001C000E00
0000001C00
00003F0800
001E7FC000
00FFE1E000
01F7C06000
0380E07000
0300703000
07003033E0
0E003E31E0
3E003FF000
7C0007E000
700001E000
E00000E000
C000006000
C000006000
C000006E00
E00000E600
600000C600
780003C000
3CCE678000
0CCC660000
000C000000
0180C00000
0198C00000
0198C00000
0000000000
0010000000
0038000000
0030000000
ENDCHAR
STARTCHAR uniF0B3
ENCODING 61619
SWIDTH 1122 0
DWIDTH 28 0
BBX 28 28 0 -8
BITMAP
00001F00
007E7FC0
00FFE1E0
01C1E060
0380E030
07007030
06003030
0E003E30
3E003FF0
700001E0
600000E0
C0000060
C0000060
C0000060
C0000060
C0000060
600000C0
700001C0
3CCC6780
0CCC6600
000C0000
0180C000
0398C000
0198C000
00000000
00300000
00300000
00300000
ENDCHAR
STARTCHAR uniF0B4
ENCODING 61620
SWIDTH 1136 0
DWIDTH 28 0
BBX 28 29 0 -8
BITMAP
00003F00
00007F00
001EE300
00FFC300
01F7C380
0380E1C0
030071E0
070030F0
0E003E30
3E003FF0
7C0007E0
700001C0
E00000E0
C0000060
C0000060
C0000060
E00000E0
600000C0
780003C0
3CCE6780
0CCC6600
000C0000
0180C000
0198C000
0198C000
00000000
00100000
00380000
00300000
ENDCHAR
STARTCHAR uniF0B5
ENCODING 61621
SWIDTH 1136 0
DWIDTH 28 0
BBX 27 27 0 -8
BITMAP
001E0000
00FF8000
01F7C000
0380E000
03007000
07003000
0E003E00
3E003F80
7C0007C0
700001C0
E00000E0
C0000060
C0000060
C0000060
E00000E0
600000C0
780003C0
3CCE6780
0CCC6600
000C0000
0080C000
0188C000
0198C000
00000000
00100000
00380000
00300000
ENDCHAR
STARTCHAR uniF0B6
ENCODING 61622
SWIDTH 1106 0
DWIDTH 28 0
BBX 28 22 0 0
BITMAP
00060000
00060000
00060000
00060000
0C060200
0E000E00
06001C00
02001800
001F8000
007FC000
00F0E000
00C07000
01C03000
F98031F0
F80001F0
00000000
0FFDBE00
0FFDBE00
00000000
00000000
06FEF800
06FEF800
ENDCHAR
STARTCHAR uniF0B7
ENCODING 61623
SWIDTH 1049 0
DWIDTH 26 0
BBX 27 17 0 0
BITMAP
00007000
00004800
00000800
FFFFF000
00000000
FFFE0000
FFFF0000
00010F80
00011FC0
000638E0
000038E0
000070E0
000070E0
000071C0
000073C0
00003F80
00001E00
ENDCHAR
STARTCHAR uniF0B8
ENCODING 61624
SWIDTH 971 0
DWIDTH 24 0
BBX 22 18 0 -1
BITMAP
000070
000008
000008
FFFFF0
000000
FFFE00
FFFF1C
00011C
00013C
000E38
000038
000038
000038
000038
000078
000070
000070
000030
ENDCHAR
STARTCHAR uniF0B9
ENCODING 61625
SWIDTH 1057 0
DWIDTH 26 0
BBX 27 17 0 0
BITMAP
00007000
00004800
00000800
FFFFF000
00000000
FFFE0000
FFFF0000
00010F80
00011FE0
000638E0
000038E0
000003E0
00000FC0
00003F00
00007FC0
0000FFC0
0000FFC0
ENDCHAR
STARTCHAR uniF0BA
ENCODING 61626
SWIDTH 1047 0
DWIDTH 26 0
BBX 27 17 0 0
BITMAP
00007000
00000800
00000800
FFFFF000
00000000
FFFE0000
FFFF0000
00010FC0
00011FE0
000638E0
000000E0
000007C0
000007C0
000001C0
000071C0
00007F80
00003F00
ENDCHAR
STARTCHAR uniF0BB
ENCODING 61627
SWIDTH 1052 0
DWIDTH 26 0
BBX 26 17 0 0
BITMAP
00007000
00004800
00000800
FFFFF000
00000000
FFFE0000
FFFF0000
000101C0
000107C0
000E0FC0
00001D80
00003B80
00007380
00007FC0
00007FC0
00000700
00000700
ENDCHAR
STARTCHAR uniF0BC
ENCODING 61628
SWIDTH 1053 0
DWIDTH 26 0
BBX 26 17 0 0
BITMAP
00007000
00004800
00000800
FFFFF000
00000000
FFFE0000
FFFF0000
00010FC0
00011FC0
000E1FC0
00003F80
00003FC0
000071C0
000001C0
000071C0
00007F80
00003F00
ENDCHAR
STARTCHAR uniF0BD
ENCODING 61629
SWIDTH 1058 0
DWIDTH 26 0
BBX 26 17 0 0
BITMAP
00007800
00000800
00000800
FFFFF000
00000000
FFFE0000
FFFF0000
00010780
00011FC0
00061CC0
00003F80
00003FC0
000039C0
000039C0
000039C0
00001F80
00001F00
ENDCHAR
STARTCHAR uniF0BE
ENCODING 61630
SWIDTH 1067 0
DWIDTH 27 0
BBX 26 17 0 0
BITMAP
00007000
00000800
00000800
FFFFF000
00000000
FFFE0000
FFFF0000
00011FC0
00013FC0
000E3FC0
00000380
00000700
00000E00
00001C00
00001C00
00003800
00003800
ENDCHAR
STARTCHAR uniF0BF
ENCODING 61631
SWIDTH 1051 0
DWIDTH 26 0
BBX 26 17 0 0
BITMAP
00007800
00000800
00000800
7FFFF800
00000000
FFFE0000
FFFF0000
00010F80
00011FC0
000E18C0
000018C0
00000F80
00003F80
000071C0
000071C0
00007F80
00003F00
ENDCHAR
STARTCHAR uniF0C0
ENCODING 61632
SWIDTH 1041 0
DWIDTH 26 0
BBX 26 17 0 0
BITMAP
00007800
00004400
00000400
7FFFF800
00000000
FFFE0000
FFFF0000
00010F00
00011F80
000639C0
000039C0
00003DC0
00001FC0
00000DC0
00007B80
00007F80
00001F00
ENDCHAR
STARTCHAR uniF0C1
ENCODING 61633
SWIDTH 1242 0
DWIDTH 31 0
BBX 31 18 0 -1
BITMAP
00007000
00000800
00000800
FFFFF000
00000000
FFFE0000
FFFF1C00
00011C78
00013CFC
000639CE
00003B8E
00003B8E
00003B8E
00003B9C
00007B9C
000071F8
000070F0
00001000
ENDCHAR
STARTCHAR uniF0C2
ENCODING 61634
SWIDTH 1083 0
DWIDTH 27 0
BBX 27 18 0 -1
BITMAP
00007000
00000800
00000800
FFFFF000
00000000
FFFE0000
FFFF1CE0
00011CE0
00011CE0
000E3DE0
000039C0
000039C0
000039C0
000039C0
00007BC0
00007380
00007380
00003180
ENDCHAR
STARTCHAR uniF0C3
ENCODING 61635
SWIDTH 1251 0
DWIDTH 31 0
BBX 31 18 0 -1
BITMAP
00007000
00000800
00000800
FFFFF000
00000000
FFFE0000
FFFF1C00
00011C7C
00011CFE
00063DCE
000039CE
0000381E
0000387C
000038F0
00007BC0
000073FC
000077FC
00003000
ENDCHAR
STARTCHAR uniF0C4
ENCODING 61636
SWIDTH 1322 0
DWIDTH 33 0
BBX 34 27 -1 0
BITMAP
0000180000
0000180000
0000180000
0000180000
0030180C00
0038001C00
001C003800
00087E1000
0001FF0000
0003C38000
000300C000
000700E000
0006006000
03E00067C0
03E00067C0
0000006000
000000C000
FFFE03C000
7FFE0F8000
00000E0000
0000003800
1FFF803C00
1FFF981C00
0000180C00
0000180000
7FFE180000
7FFE180000
ENDCHAR
STARTCHAR uniF0C5
ENCODING 61637
SWIDTH 1034 0
DWIDTH 26 0
BBX 27 24 -1 0
BITMAP
0007FC00
003FFF00
00F807C0
01C00780
07806600
0E07FE00
0C1C1E00
18303C00
18603000
30C03000
3001F800
7007C000
601E0000
60380000
60300800
60603E00
60607700
6061C1C0
60C1C1E0
60C0C180
30C0C180
30C0C180
FFFFFFE0
FFFFFFE0
ENDCHAR
STARTCHAR uniF0C6
ENCODING 61638
SWIDTH 1015 0
DWIDTH 25 0
BBX 25 25 0 -3
BITMAP
0000C000
0200C000
0300C000
0300C000
0701C000
0701C000
07014000
05114000
05134000
051B4000
0DBA4000
0DBA4000
0DBE4000
F9A64F80
00A64800
00A07800
00A07000
00E07000
00E07000
00E07000
00E07000
00C06000
00406000
00402000
00400000
ENDCHAR
STARTCHAR uniF0C7
ENCODING 61639
SWIDTH 794 0
DWIDTH 20 0
BBX 20 21 0 -1
BITMAP
018000
038000
078000
078800
0FC400
0FE600
0FFF00
0FFF00
0FFF00
0FFF80
2FFF80
67FF80
7FFF60
7FFFE0
7FFFE0
3FFFC0
3FFFC0
000000
FFFFF0
FFFFF0
FFFFF0
ENDCHAR
STARTCHAR uniF0C8
ENCODING 61640
SWIDTH 803 0
DWIDTH 20 0
BBX 20 25 0 -2
BITMAP
01E000
03F000
07FC00
0FFE00
0FFE00
0FFE00
07FC00
01FC00
00F000
00F000
006000
000000
00E000
00B000
01B800
03B800
03BC00
079E00
1FCF00
3FC780
7FE780
7FC7C0
FF87E0
FF07F0
F80FE0
ENDCHAR
STARTCHAR uniF0C9
ENCODING 61641
SWIDTH 756 0
DWIDTH 19 0
BBX 18 19 0 0
BITMAP
00E000
07E000
1FE000
3C6000
706000
703000
603800
C01C00
C00FC0
C003C0
C000C0
C000C0
C040C0
60E1C0
01F000
03F800
7FBFC0
FF1FC0
7E0FC0
ENDCHAR
STARTCHAR uniF0CA
ENCODING 61642
SWIDTH 756 0
DWIDTH 19 0
BBX 18 23 0 -4
BITMAP
00E000
07E000
1FE000
3C6000
707000
703000
603800
C01C00
C00FC0
C003C0
C000C0
C000C0
C000C0
6001C0
000000
000000
7E0FC0
FF1FC0
7FBFC0
07F800
01F000
00E000
004000
ENDCHAR
STARTCHAR uniF0CB
ENCODING 61643
SWIDTH 1120 0
DWIDTH 28 0
BBX 28 27 0 -2
BITMAP
00003000
00007800
0001FE00
0001FE00
0001FE00
0001FC00
00007000
00007000
00006000
0000F800
0000F800
00007000
FFC07000
7FC07000
61C07000
61FFFC00
61FFFE00
61FFFE00
61FFFE00
7FFFFE00
7FFFFE00
7FFFFF00
7FFFFF80
3F7FFB80
3F7FFBC0
3F7FFBE0
1E3CF3F0
ENDCHAR
STARTCHAR uniF0CC
ENCODING 61644
SWIDTH 540 0
DWIDTH 14 0
BBX 13 23 0 -4
BITMAP
A000
B800
BF00
BFC0
BFF0
BFF8
BFC0
BF00
BC00
A000
8000
8000
8000
8000
8000
8000
8000
8000
8000
8000
8000
8000
8000
ENDCHAR
STARTCHAR uniF0CD
ENCODING 61645
SWIDTH 450 0
DWIDTH 11 0
BBX 13 23 0 -4
BITMAP
A000
B800
BF00
BFC0
BFF0
BFF8
BFC0
BF00
BC00
A000
A000
B800
BF00
BFC0
BFF8
BFF0
BFC0
BF00
B800
A000
8000
8000
8000
ENDCHAR
STARTCHAR uniF0CE
ENCODING 61646
SWIDTH 545 0
DWIDTH 14 0
BBX 14 22 0 -3
BITMAP
9FFC
9FFC
9FFC
9C1C
9C1C
9C1C
9FFC
9FFC
9FFC
8000
8000
8000
8000
8000
8000
8000
8000
8000
8000
8000
8000
8000
ENDCHAR
STARTCHAR uniF0CF
ENCODING 61647
SWIDTH 750 0
DWIDTH 19 0
BBX 14 22 0 -3
BITMAP
9FFC
9FFC
9FFC
9C1C
9C1C
9C1C
9FFC
9FFC
9FFC
8000
9FFC
9FFC
9FFC
9C1C
9C1C
9C1C
9FFC
9FFC
9FFC
8000
8000
8000
ENDCHAR
STARTCHAR uniF0D0
ENCODING 61648
SWIDTH 750 0
DWIDTH 19 0
BBX 19 19 0 0
BITMAP
03F000
0FEC00
1FF300
3FF980
7FFCC0
7FFC40
FFFE40
FFFE20
FFFE20
FFFE20
FFFE20
FFFE20
FFFE40
7FFC40
7FFCC0
3FF980
1FFB00
0FEC00
03F000
ENDCHAR
STARTCHAR uniF0D1
ENCODING 61649
SWIDTH 750 0
DWIDTH 19 0
BBX 19 19 0 0
BITMAP
03F000
0FCC00
1FF300
3FF180
7FF880
7FF840
FFFC40
FFFC20
FFFC20
FFFC20
FFFC20
FFFC20
FFFC40
7FF840
7FF880
3FF980
1FF300
0FEC00
03F000
ENDCHAR
STARTCHAR uniF0D2
ENCODING 61650
SWIDTH 750 0
DWIDTH 19 0
BBX 19 19 0 0
BITMAP
03F000
0FCC00
1FE300
3FE180
7FF080
7FF040
FFF840
FFF820
FFF820
FFF820
FFF820
FFF820
FFF840
7FF840
7FF080
3FF180
1FE300
0FCC00
03F000
ENDCHAR
STARTCHAR uniF0D3
ENCODING 61651
SWIDTH 856 0
DWIDTH 21 0
BBX 19 19 0 0
BITMAP
01F800
0FCE00
1FE300
3FF080
7FF0C0
7FF040
FFF860
FFF820
FFF820
FFF820
FFF820
FFF820
FFF860
7FF840
7FF0C0
3FF080
1FE300
0FEE00
01F800
ENDCHAR
STARTCHAR uniF0D4
ENCODING 61652
SWIDTH 750 0
DWIDTH 19 0
BBX 19 19 0 0
BITMAP
03F800
0FCE00
1FC300
3FE080
7FE0C0
7FE040
FFF060
FFF020
FFF020
FFF020
FFF020
FFF020
FFF060
7FF040
7FE0C0
3FE080
1FE300
0FCE00
01F800
ENDCHAR
STARTCHAR uniF0D5
ENCODING 61653
SWIDTH 750 0
DWIDTH 19 0
BBX 19 19 0 0
BITMAP
03F000
0FCE00
1FC300
3FC180
7FC0C0
7FE040
FFE040
FFE020
FFE020
FFE020
FFE020
FFE020
FFE060
7FE040
7FE0C0
3FC080
1FC300
0FCE00
03F000
ENDCHAR
STARTCHAR uniF0D6
ENCODING 61654
SWIDTH 750 0
DWIDTH 19 0
BBX 19 19 0 0
BITMAP
03F000
0F8C00
1F8300
3F8180
7F80C0
7F8040
FF8040
FF8020
FF8020
FF8020
FF8020
FF8020
FF8040
7F8040
7F80C0
3F8180
1F8300
0F8C00
03F000
ENDCHAR
STARTCHAR uniF0D7
ENCODING 61655
SWIDTH 750 0
DWIDTH 19 0
BBX 19 19 0 0
BITMAP
03F000
0F8E00
1F8300
3F8180
7F00C0
7F0040
FF0040
FF0020
FF0020
FF0020
FF0020
FF0020
FF0060
7F0040
7F00C0
3F0180
1F8300
0F8E00
03F000
ENDCHAR
STARTCHAR uniF0D8
ENCODING 61656
SWIDTH 750 0
DWIDTH 19 0
BBX 19 19 0 0
BITMAP
01F800
0F8E00
1F0300
3F0080
7F00C0
7E0040
FE0060
FE0020
FE0020
FE0020
FE0020
FE0020
FE0060
7E0040
7F00C0
3F0080
1F0300
0F8E00
03F800
ENDCHAR
STARTCHAR uniF0D9
ENCODING 61657
SWIDTH 750 0
DWIDTH 19 0
BBX 19 19 0 0
BITMAP
01F800
0F8E00
1F0300
3E0080
7E00C0
7E0040
FC0060
FC0020
FC0020
FC0020
FC0020
FC0020
FC0060
7C0040
7E00C0
3E0080
1F0300
0F0E00
01F800
ENDCHAR
STARTCHAR uniF0DA
ENCODING 61658
SWIDTH 750 0
DWIDTH 19 0
BBX 19 19 0 0
BITMAP
01F800
070E00
1E0300
3E0080
7C00C0
7C0040
F80060
F80020
F80020
F80020
F80020
F80020
F80060
7C0040
7C00C0
3C0080
1E0300
0F0600
01F800
ENDCHAR
STARTCHAR uniF0DB
ENCODING 61659
SWIDTH 750 0
DWIDTH 19 0
BBX 19 19 0 0
BITMAP
03F000
0E0E00
1C0300
380180
7000C0
700040
E00040
E00020
E00020
E00020
E00020
E00020
E00060
700040
7000C0
380180
1C0300
0E0E00
03F000
ENDCHAR
STARTCHAR uniF0DC
ENCODING 61660
SWIDTH 750 0
DWIDTH 19 0
BBX 19 19 0 0
BITMAP
03F000
0E0E00
180300
300180
6000C0
600040
C00040
C00020
C00020
C00020
C00020
C00020
C00060
600040
6000C0
300180
180300
0E0E00
03F000
ENDCHAR
STARTCHAR uniF0DD
ENCODING 61661
SWIDTH 750 0
DWIDTH 19 0
BBX 19 19 0 0
BITMAP
03F800
0E0E00
180300
200180
6000C0
400040
C00060
800020
800020
800020
800020
800020
C00060
400040
6000C0
200180
180300
0E0E00
03F800
ENDCHAR
STARTCHAR uniF0DE
ENCODING 61662
SWIDTH 750 0
DWIDTH 19 0
BBX 18 19 0 0
BITMAP
03F000
0C1C00
180E00
200700
600380
400380
C001C0
8001C0
8001C0
8001C0
8001C0
8001C0
C001C0
400380
600380
200700
180600
0C1C00
03F000
ENDCHAR
STARTCHAR uniF0DF
ENCODING 61663
SWIDTH 750 0
DWIDTH 19 0
BBX 19 19 0 0
BITMAP
03F000
0E1C00
180F00
200F80
6007C0
4007C0
C003C0
8003E0
8003E0
8003E0
8003E0
8003E0
C003C0
4007C0
6007C0
200780
180F00
0C1C00
03F000
ENDCHAR
STARTCHAR uniF0E0
ENCODING 61664
SWIDTH 750 0
DWIDTH 19 0
BBX 19 19 0 0
BITMAP
03F000
0E3C00
181F00
200F80
600FC0
400FC0
C007C0
8007E0
8007E0
8007E0
8007E0
8007E0
C007C0
4007C0
600FC0
200F80
181F00
0E3C00
03F000
ENDCHAR
STARTCHAR uniF0E1
ENCODING 61665
SWIDTH 750 0
DWIDTH 19 0
BBX 19 19 0 0
BITMAP
03F000
0E3C00
183F00
201F80
601FC0
400FC0
C00FC0
800FE0
800FE0
800FE0
800FE0
800FE0
C00FC0
400FC0
601FC0
201F80
181F00
0E3C00
03F000
ENDCHAR
STARTCHAR uniF0E2
ENCODING 61666
SWIDTH 750 0
DWIDTH 19 0
BBX 19 19 0 0
BITMAP
01F800
0E3E00
181F00
301F80
601FC0
400FC0
C00FE0
800FE0
800FE0
800FE0
800FE0
800FE0
C00FE0
400FC0
600FC0
301F80
181F00
061E00
01F800
ENDCHAR
STARTCHAR uniF0E3
ENCODING 61667
SWIDTH 750 0
DWIDTH 19 0
BBX 19 19 0 0
BITMAP
01F800
063E00
183F00
301F80
601FC0
401FC0
C01FE0
801FE0
801FE0
801FE0
801FE0
801FE0
C01FE0
401FC0
601FC0
301F80
183F00
0E3E00
01F800
ENDCHAR
STARTCHAR uniF0E4
ENCODING 61668
SWIDTH 750 0
DWIDTH 19 0
BBX 19 19 0 0
BITMAP
01F800
063E00
183F00
303F80
603FC0
403FC0
C03FE0
803FE0
803FE0
803FE0
803FE0
803FE0
403FE0
403FC0
603FC0
303F80
183F00
063E00
01F800
ENDCHAR
STARTCHAR uniF0E5
ENCODING 61669
SWIDTH 750 0
DWIDTH 19 0
BBX 19 19 0 0
BITMAP
01F800
0E3E00
187F00
307F80
607FC0
407FC0
C07FE0
807FE0
807FE0
807FE0
807FE0
807FE0
C07FE0
407FC0
607FC0
307F80
187F00
0E3E00
01F800
ENDCHAR
STARTCHAR uniF0E6
ENCODING 61670
SWIDTH 750 0
DWIDTH 19 0
BBX 19 19 0 0
BITMAP
03F800
0E7E00
187F00
307F80
60FFC0
40FFC0
C0FFE0
80FFE0
80FFE0
80FFE0
80FFE0
80FFE0
C0FFE0
40FFC0
60FFC0
207F80
187F00
0E7E00
01F800
ENDCHAR
STARTCHAR uniF0E7
ENCODING 61671
SWIDTH 750 0
DWIDTH 19 0
BBX 19 19 0 0
BITMAP
03F000
0E7E00
18FF00
20FF80
60FFC0
41FFC0
C1FFC0
81FFE0
81FFE0
81FFE0
81FFE0
81FFE0
C1FFE0
41FFC0
60FFC0
20FF80
18FF00
0E7E00
03F000
ENDCHAR
STARTCHAR uniF0E8
ENCODING 61672
SWIDTH 750 0
DWIDTH 19 0
BBX 19 18 0 1
BITMAP
03F000
0E7E00
18FF00
21FF80
61FFC0
41FFC0
83FFE0
83FFE0
83FFE0
83FFE0
83FFE0
83FFE0
43FFC0
43FFC0
21FF80
11FF00
08FE00
07F800
ENDCHAR
STARTCHAR uniF0E9
ENCODING 61673
SWIDTH 750 0
DWIDTH 19 0
BBX 18 19 0 0
BITMAP
03F000
0DFC00
13FE00
23FF00
47FF80
47FF80
CFFFC0
8FFFC0
8FFFC0
8FFFC0
8FFFC0
8FFFC0
CFFFC0
47FF80
47FF80
27FF00
13FE00
0DFC00
03F000
ENDCHAR
STARTCHAR uniF0EA
ENCODING 61674
SWIDTH 750 0
DWIDTH 19 0
BBX 19 19 0 0
BITMAP
01F800
06FE00
19FF00
33FF80
67FFC0
47FFC0
CFFFE0
8FFFE0
8FFFE0
8FFFE0
8FFFE0
8FFFE0
4FFFE0
47FFC0
67FFC0
33FF80
1BFF00
06FE00
01F800
ENDCHAR
STARTCHAR uniF0EB
ENCODING 61675
SWIDTH 750 0
DWIDTH 19 0
BBX 19 19 0 0
BITMAP
03F800
0FFE00
1FFF00
3FFF80
7FFFC0
7FFFC0
FFFFE0
FFFFE0
FFFFE0
FFFFE0
FFFFE0
FFFFE0
FFFFE0
7FFFC0
7FFFC0
3FFF80
1FFF00
0FFE00
03F800
ENDCHAR
STARTCHAR .notdef
ENCODING -1
SWIDTH 365 0
DWIDTH 9 0
BBX 7 17 1 0
BITMAP
FE
82
82
82
82
82
82
82
82
82
82
82
82
82
82
82
FE
ENDCHAR
STARTCHAR glyph1
ENCODING -1
SWIDTH 0 0
DWIDTH 0 0
BBX 1 1 0 0
BITMAP
00
ENDCHAR
STARTCHAR glyph2
ENCODING -1
SWIDTH 333 0
DWIDTH 8 0
BBX 1 1 0 0
BITMAP
00
ENDCHAR
ENDFONT
